<svg width="1920" height="340" viewBox="0 0 1920 340" fill="none" xmlns="http://www.w3.org/2000/svg">
<g clip-path="url(#clip0_108_2038)">
<g opacity="0.1">
<path d="M30.8778 32.7303V19.4041L17.6835 6.20891L17.8913 6H11.8569L11.6491 6.20891L14.6643 9.22425L26.6088 21.1695V32.7293H14.2418L2.7021 21.1876L0 18.4866V24.5182L12.6396 37.1579H26.6004L26.6088 59.4149H53.3363L53.3979 32.6855L30.8778 32.7303ZM49.051 55.1498H30.8996V37.1579H49.051V55.1498Z" fill="white"/>
<path d="M190.828 19.4041L177.633 6.20891L177.843 6H171.811L171.603 6.20891L174.618 9.22425L186.562 21.1695V32.7293H174.195L162.656 21.1876L159.638 18.1722L145.083 32.7303H133.333V20.5541L147.673 6.21378L147.464 6.00371H141.432L141.642 6.21378L129.065 18.7906V32.734L106.603 32.6904L106.565 59.4112H133.353L133.333 37.1539H146.689L159.642 24.2011L172.596 37.1539H186.557L186.565 59.4112H213.294L213.354 32.6818L190.832 32.7254L190.828 19.4041ZM129.036 55.1498H110.864V37.1579H129.036V55.1498ZM190.85 37.1579H209.002V55.1498H190.85L190.85 37.1579Z" fill="white"/>
<path d="M350.778 19.4041L337.584 6.20891L337.792 6H331.76L331.552 6.20891L334.568 9.22425L346.512 21.1695V32.7294H334.145L322.605 21.1876L319.588 18.1722L305.031 32.7303H293.282V20.5541L307.623 6.21378L307.413 6.00371H301.38L301.59 6.21378L289.013 18.7906V32.734L266.551 32.6904L266.512 59.4197H293.299L293.279 37.1625H306.639L319.593 24.2096L332.547 37.1625H346.508L346.517 59.4197H373.245L373.307 32.6904L350.785 32.734L350.778 19.4041ZM288.986 55.1498H270.812V37.1579H288.986V55.1498ZM350.8 37.1579H368.951V55.1498H350.8V37.1579Z" fill="white"/>
<path d="M510.727 19.4041L497.533 6.20891L497.742 6H491.71L491.502 6.20891L494.517 9.22425L506.461 21.1695V32.7294H494.094L482.556 21.1876L479.539 18.1722L464.982 32.7303H453.232V20.5541L467.572 6.21378L467.362 6.00371H461.331L461.541 6.21378L448.963 18.7906V32.734L426.502 32.6904L426.462 59.4197H453.25L453.229 37.1625H466.588L479.541 24.2096L492.495 37.1625H506.456L506.464 59.4197H533.192L533.254 32.6904L510.731 32.734L510.727 19.4041ZM448.936 55.1498H430.763V37.1579H448.936V55.1498ZM510.749 37.1579H528.902V55.1498H510.749V37.1579Z" fill="white"/>
<path d="M624.931 32.7305H613.181V20.5543L627.522 6.21397L627.313 6.00391H621.281L621.491 6.21397L608.913 18.7908V32.7342L586.452 32.6906L586.413 59.4199H613.2L613.178 37.1627H626.539L639.492 24.2098L639.807 24.5231V18.4917L639.492 18.1773L624.931 32.7305ZM608.882 55.15H590.709V37.1581H608.882V55.15Z" fill="white"/>
<path d="M110.875 117.325H129.027V135.317H110.875V117.325ZM129.059 55.3806H128.762L128.995 55.1478H110.875V39.1529H110.843V37.0636H110.983L110.965 37.0798H129.027V54.3843H129.059V55.3806ZM106.589 71.4153L94.6436 83.3606L91.6281 86.375L94.6436 89.3913L106.589 101.336V112.896H94.2217L82.682 101.355L79.6641 98.3402L65.1079 112.897H53.3581V100.721L67.6987 86.3806L53.3581 72.0402V59.6533H64.7879L76.6485 71.512L79.6641 74.5283L82.682 71.512L94.5407 59.6533H106.59L106.589 71.4153ZM49.0617 135.317H30.8889V117.325H49.0617V135.317ZM133.313 32.7994L106.586 32.754L106.578 54.3852H106.589V55.145H93.0081L92.7762 55.3778H92.6691L79.6659 68.3791L66.6655 55.3778H66.5579L66.3251 55.145H53.3609L53.3817 32.751L26.5944 32.7967L26.6343 59.6429H49.0951V73.7933L61.6717 86.371L49.0951 98.949V112.891L26.6343 112.848L26.5944 139.578H53.3817L53.3609 117.32H66.7137L79.6668 104.366L92.6214 117.32H106.582L106.59 139.578H133.318L133.381 112.848L110.859 112.891V99.5653L97.6643 86.3701L110.859 73.1761V59.6408H133.381L133.313 32.7994ZM49.0747 55.1478H30.8917V39.1529H30.8815V37.0807H48.3647L48.3476 37.0645H49.0636V54.3852H49.0738L49.0747 55.1478Z" fill="white"/>
<path d="M270.824 117.325H288.977V135.317H270.824V117.325ZM289.008 55.3806H288.712L288.945 55.1478H270.824V39.1529H270.794V37.0636H270.932L270.916 37.0798H288.977V54.3843H289.008V55.3806ZM266.538 71.4153L254.593 83.3606L251.578 86.375L254.593 89.3913L266.538 101.336V112.896H254.171L242.632 101.355L239.614 98.3402L225.058 112.897H213.308V100.721L227.648 86.3806L213.308 72.0402V59.6533H224.737L236.598 71.512L239.614 74.5283L242.632 71.512L254.49 59.6533H266.539L266.538 71.4153ZM209.011 135.317H190.838V117.325H209.011V135.317ZM293.263 32.7994L266.536 32.754L266.528 54.3852H266.538V55.145H252.958L252.725 55.3778H252.619L239.615 68.3791L226.614 55.3778H226.506L226.274 55.145H213.309L213.33 32.751L186.543 32.7967L186.583 59.6429H209.043V73.7933L221.621 86.371L209.043 98.949V112.891L186.583 112.848L186.543 139.578H213.33L213.309 117.32H226.663L239.616 104.366L252.57 117.32H266.531L266.539 139.578H293.266L293.328 112.848L270.806 112.891V99.5653L257.612 86.3701L270.806 73.1761V59.6408H293.328L293.263 32.7994ZM209.024 55.1478H190.841V39.1529H190.83V37.0807H208.315L208.297 37.0645H209.013V54.3852H209.023L209.024 55.1478Z" fill="white"/>
<path d="M430.775 117.325H448.927V135.317H430.775V117.325ZM448.958 55.3806H448.662L448.895 55.1478H430.775V39.1529H430.744V37.0636H430.883L430.866 37.0798H448.927V54.3843H448.958V55.3806ZM426.488 71.4153L414.545 83.3606L411.529 86.375L414.545 89.3913L426.488 101.336V112.896H414.121L402.582 101.355L399.564 98.3402L385.009 112.897H373.258V100.721L387.599 86.3806L373.258 72.0402V59.6533H384.688L396.548 71.512L399.564 74.5283L402.582 71.512L414.44 59.6533H426.489L426.488 71.4153ZM368.961 135.317H350.789V117.325H368.961V135.317ZM453.215 32.7994L426.486 32.754L426.478 54.3852H426.488V55.145H412.907L412.674 55.3778H412.568L399.564 68.3791L386.563 55.3778H386.456L386.223 55.145H373.259L373.28 32.751L346.492 32.7967L346.532 59.6429H368.993V73.7933L381.57 86.371L368.993 98.949V112.891L346.532 112.848L346.492 139.578H373.28L373.259 117.32H386.614L399.566 104.366L412.521 117.32H426.482L426.49 139.578H453.218L453.279 112.848L430.757 112.891V99.5653L417.563 86.3701L430.757 73.1761V59.6408H453.279L453.215 32.7994ZM368.976 55.1478H350.793V39.1529H350.783V37.0807H368.267L368.25 37.0645H368.964V54.3852H368.975L368.976 55.1478Z" fill="white"/>
<path d="M590.725 117.325H608.876V135.317H590.725V117.325ZM608.908 55.3806H608.612L608.846 55.1478H590.725V39.1529H590.692V37.0636H590.831L590.815 37.0798H608.876V54.3843H608.906L608.908 55.3806ZM586.439 71.4153L574.495 83.3606L571.479 86.375L574.495 89.3913L586.439 101.336V112.896H574.071L562.532 101.355L559.514 98.3402L544.958 112.897H533.206V100.721L547.548 86.3806L533.206 72.0402V59.6533H544.637L556.498 71.512L559.514 74.5283L562.532 71.512L574.39 59.6533H586.44L586.439 71.4153ZM528.911 135.317H510.74V117.325H528.911V135.317ZM613.164 32.7994L586.436 32.754L586.427 54.3852H586.439V55.145H572.857L572.625 55.3778H572.517L559.514 68.3791L546.513 55.3778H546.406L546.172 55.145H533.207L533.23 32.751L506.442 32.7967L506.482 59.6429H528.942V73.7933L541.521 86.371L528.942 98.949V112.891L506.482 112.848L506.442 139.578H533.23L533.207 117.32H546.564L559.516 104.366L572.472 117.32H586.432L586.441 139.578H613.169L613.23 112.848L590.709 112.891V99.5653L577.514 86.3701L590.709 73.1761V59.6408H613.23L613.164 32.7994ZM528.925 55.1478H510.744V39.1529H510.732V37.0807H528.217L528.2 37.0645H528.914V54.3852H528.924L528.925 55.1478Z" fill="white"/>
<path d="M30.8778 179.601L17.6835 166.406L30.8778 153.212V139.677H53.3998L53.3381 112.831L26.6106 112.784L26.6022 134.416H26.6124V135.176H13.0319L12.7991 135.409H12.692L0.00366211 148.096V154.235L2.70577 151.533L14.5654 139.674H26.6134V151.443L14.6693 163.389L11.6537 166.403L14.6693 169.42L26.6134 181.364V192.925H14.2464L2.70669 181.384L0.00458955 178.683V184.715L12.6442 197.352H26.605L26.6134 219.61H53.3409L53.4025 192.881L30.8805 192.925L30.8778 179.601ZM30.8671 117.097H31.0057L30.9895 117.112H49.0501V134.417H49.0816V135.413H48.7862L49.019 135.18H30.8977V119.185H30.8662L30.8671 117.097ZM30.8986 197.355H49.0501V215.347H30.8986V197.355Z" fill="white"/>
<path d="M190.85 197.355H209.003V215.347H190.85V197.355ZM209.033 135.412H208.738L208.971 135.179H190.85V119.184H190.819V117.095H190.958L190.942 117.11H209.003V134.415H209.033V135.412ZM186.563 151.447L174.62 163.392L171.605 166.406L174.62 169.422L186.563 181.367V192.928H174.196L162.658 181.387L159.641 178.371L145.084 192.928H133.335V180.752L147.675 166.412L133.335 152.071V139.684H144.763L156.624 151.543L159.641 154.56L162.658 151.543L174.516 139.684H186.564L186.563 151.447ZM129.036 215.347H110.865V197.355H129.036V215.347ZM213.29 112.831L186.561 112.784L186.553 134.416H186.563V135.176H172.983L172.75 135.409H172.643L159.641 148.409L146.638 135.409H146.532L146.3 135.176H133.336L133.356 112.781L106.567 112.828L106.607 139.674H129.069V153.825L141.646 166.402L129.069 178.98V192.923L106.607 192.879L106.567 219.608H133.356L133.336 197.35H146.689L159.642 184.397L172.596 197.35H186.557L186.565 219.608H213.294L213.354 192.879L190.832 192.923V179.597L177.638 166.401L190.832 153.207V139.672H213.354L213.29 112.831ZM129.052 135.179H110.869V119.184H110.858V117.111H128.342L128.325 117.096H129.039V134.416H129.05L129.052 135.179Z" fill="white"/>
<path d="M350.8 197.355H368.951V215.347H350.8V197.355ZM368.983 135.412H368.688L368.92 135.179H350.8V119.184H350.767V117.095H350.907L350.89 117.11H368.951V134.415H368.983V135.412ZM346.513 151.447L334.569 163.392L331.553 166.406L334.569 169.422L346.513 181.367V192.928H334.146L322.606 181.387L319.589 178.371L305.032 192.928H293.283V180.752L307.624 166.412L293.283 152.071V139.684H304.712L316.574 151.543L319.589 154.56L322.606 151.543L334.466 139.684H346.514L346.513 151.447ZM288.986 215.347H270.812V197.355H288.986V215.347ZM373.238 112.831L346.51 112.784L346.502 134.416H346.513V135.176H332.932L332.699 135.409H332.591L319.589 148.409L306.586 135.409H306.48L306.248 135.176H293.284L293.304 112.781L266.517 112.828L266.556 139.674H289.018V153.825L301.595 166.402L289.018 178.98V192.923L266.556 192.879L266.517 219.608H293.304L293.284 197.35H306.639L319.593 184.397L332.547 197.35H346.508L346.517 219.608H373.245L373.307 192.879L350.785 192.923V179.597L337.59 166.401L350.785 153.207V139.672H373.307L373.238 112.831ZM289 135.179H270.817V119.184H270.808V117.111H288.291L288.275 117.096H288.99V134.416H289V135.179Z" fill="white"/>
<path d="M510.749 197.355H528.902V215.347H510.749V197.355ZM528.933 135.412H528.639L528.871 135.179H510.749V119.184H510.718V117.095H510.857L510.841 117.11H528.902V134.415H528.931L528.933 135.412ZM506.463 151.447L494.519 163.392L491.504 166.406L494.519 169.422L506.463 181.367V192.928H494.096L482.557 181.387L479.54 178.371L464.984 192.928H453.234V180.752L467.574 166.412L453.234 152.071V139.684H464.663L476.524 151.543L479.54 154.56L482.557 151.543L494.416 139.684H506.464L506.463 151.447ZM448.937 215.347H430.764V197.355H448.937V215.347ZM533.189 112.831L506.461 112.784L506.453 134.416H506.463V135.176H492.883L492.65 135.409H492.543L479.54 148.409L466.539 135.409H466.432L466.199 135.176H453.235L453.255 112.781L426.468 112.828L426.508 139.674H448.968V153.825L461.546 166.402L448.968 178.98V192.923L426.508 192.879L426.468 219.608H453.255L453.235 197.35H466.588L479.541 184.397L492.495 197.35H506.456L506.464 219.608H533.192L533.254 192.879L510.731 192.923V179.597L497.537 166.401L510.731 153.207V139.672H533.254L533.189 112.831ZM448.951 135.179H430.768V119.184H430.756V117.111H448.241L448.223 117.096H448.939V134.416H448.949L448.951 135.179Z" fill="white"/>
<path d="M639.803 178.686L639.489 178.371L624.931 192.928H613.181V180.752L627.522 166.412L613.181 152.071V139.684H624.611L636.473 151.543L639.489 154.559L639.803 154.245V148.106L639.489 148.42L626.487 135.419H626.379L626.146 135.186H613.182L613.204 112.792L586.417 112.838L586.456 139.684H608.916V153.835L621.495 166.413L608.916 178.99V192.933L586.456 192.889L586.417 219.619H613.204L613.182 197.361H626.539L639.492 184.408L639.807 184.723L639.803 178.686ZM608.896 135.179H590.713V119.184H590.702V117.111H608.186L608.17 117.096H608.886V134.416H608.896V135.179ZM608.886 215.347H590.713V197.355H608.886V215.347Z" fill="white"/>
<path d="M110.875 277.524H129.027V295.516H110.875V277.524ZM129.059 215.58H128.762L128.995 215.347H110.875V199.352H110.843V197.263H110.983L110.965 197.279H129.027V214.585H129.059V215.58ZM106.589 231.615L94.6436 243.561L91.6281 246.576L94.6436 249.591L106.589 261.537V273.096H94.2217L82.682 261.555L79.6641 258.539L65.1079 273.096H53.3581V260.92L67.6987 246.58L53.3581 232.239V219.845H64.7879L76.6485 231.705L79.6641 234.72L82.682 231.705L94.5398 219.845H106.589V231.615ZM49.0617 295.517H30.8889V277.525H49.0617V295.517ZM133.313 193L106.586 192.954L106.578 214.586H106.589V215.346H93.0081L92.7762 215.579H92.6691L79.6659 228.58L66.6655 215.579H66.5579L66.3251 215.346H53.3609L53.3817 192.952L26.5944 192.998L26.6343 219.844H49.0951V233.994L61.6717 246.572L49.0951 259.148V273.092L26.6343 273.048L26.5944 299.777H53.3817L53.3609 277.519H66.7137L79.6668 264.566L92.6214 277.519H106.582L106.59 299.777H133.318L133.381 273.048L110.859 273.092V259.766L97.6643 246.571L110.859 233.377V219.845H133.381L133.313 193ZM49.0747 215.348H30.8917V199.353H30.8815V197.281H48.3647L48.3476 197.265H49.0636V214.586H49.0738L49.0747 215.348Z" fill="white"/>
<path d="M270.824 277.524H288.977V295.516H270.824V277.524ZM289.008 215.58H288.712L288.945 215.347H270.824V199.352H270.794V197.263H270.932L270.916 197.279H288.977V214.585H289.008V215.58ZM266.538 231.615L254.593 243.561L251.578 246.576L254.593 249.591L266.538 261.537V273.096H254.171L242.632 261.555L239.614 258.539L225.058 273.096H213.308V260.92L227.648 246.58L213.308 232.239V219.845H224.737L236.598 231.705L239.614 234.72L242.632 231.705L254.489 219.845H266.538V231.615ZM209.011 295.517H190.838V277.525H209.011V295.517ZM293.263 193L266.536 192.954L266.528 214.586H266.538V215.346H252.958L252.725 215.579H252.619L239.615 228.58L226.614 215.579H226.506L226.274 215.346H213.309L213.33 192.952L186.543 192.998L186.583 219.844H209.043V233.994L221.621 246.572L209.043 259.148V273.092L186.583 273.048L186.543 299.777H213.33L213.309 277.519H226.663L239.616 264.566L252.57 277.519H266.531L266.539 299.777H293.266L293.328 273.048L270.806 273.092V259.766L257.612 246.571L270.806 233.377V219.845H293.328L293.263 193ZM209.024 215.348H190.841V199.353H190.83V197.281H208.315L208.297 197.265H209.013V214.586H209.023L209.024 215.348Z" fill="white"/>
<path d="M430.775 277.524H448.927V295.516H430.775V277.524ZM448.958 215.58H448.662L448.895 215.347H430.775V199.352H430.744V197.263H430.883L430.866 197.279H448.927V214.585H448.958V215.58ZM426.488 231.615L414.545 243.561L411.529 246.576L414.545 249.591L426.488 261.537V273.096H414.121L402.582 261.555L399.564 258.539L385.009 273.096H373.258V260.92L387.599 246.58L373.258 232.239V219.845H384.688L396.548 231.705L399.564 234.72L402.582 231.705L414.44 219.845H426.489L426.488 231.615ZM368.961 295.517H350.789V277.525H368.961V295.517ZM453.215 193L426.486 192.954L426.478 214.586H426.488V215.346H412.907L412.674 215.579H412.568L399.564 228.58L386.563 215.579H386.456L386.223 215.346H373.259L373.28 192.952L346.492 192.998L346.532 219.844H368.993V233.994L381.57 246.572L368.993 259.148V273.092L346.532 273.048L346.492 299.777H373.28L373.259 277.519H386.614L399.566 264.566L412.521 277.519H426.482L426.49 299.777H453.218L453.279 273.048L430.757 273.092V259.766L417.563 246.571L430.757 233.377V219.845H453.279L453.215 193ZM368.976 215.348H350.793V199.353H350.783V197.281H368.267L368.25 197.265H368.964V214.586H368.975L368.976 215.348Z" fill="white"/>
<path d="M590.725 277.524H608.876V295.516H590.725V277.524ZM608.908 215.58H608.612L608.846 215.347H590.725V199.352H590.692V197.263H590.831L590.815 197.279H608.876V214.585H608.906L608.908 215.58ZM586.439 231.615L574.495 243.561L571.479 246.576L574.495 249.591L586.439 261.537V273.096H574.071L562.532 261.555L559.514 258.539L544.958 273.096H533.206V260.92L547.548 246.58L533.206 232.239V219.845H544.637L556.498 231.705L559.514 234.72L562.532 231.705L574.39 219.845H586.44L586.439 231.615ZM528.911 295.517H510.74V277.525H528.911V295.517ZM613.164 193L586.436 192.954L586.427 214.586H586.439V215.346H572.857L572.625 215.579H572.517L559.514 228.58L546.513 215.579H546.406L546.172 215.346H533.207L533.23 192.952L506.442 192.998L506.482 219.844H528.942V233.994L541.521 246.572L528.942 259.148V273.092L506.482 273.048L506.442 299.777H533.23L533.207 277.519H546.564L559.516 264.566L572.472 277.519H586.432L586.441 299.777H613.169L613.23 273.048L590.709 273.092V259.766L577.514 246.571L590.709 233.377V219.845H613.23L613.164 193ZM528.925 215.348H510.744V199.353H510.732V197.281H528.217L528.2 197.265H528.914V214.586H528.924L528.925 215.348Z" fill="white"/>
<path d="M30.8778 339.8L17.6836 326.605L30.8778 313.411V299.875H53.3998L53.3381 273.027L26.6106 272.982L26.6023 294.615H26.6125V295.375H13.032L12.7992 295.608H12.6921L0.00372314 308.294V314.433L2.70583 311.733L14.5655 299.873H26.6134V311.643L11.6538 326.603L14.6694 329.618L26.6134 341.565V353.123H14.2465L2.70675 341.583L0.00465059 338.882V344.913L12.6443 357.553H26.6051L26.6134 379.811H53.3409L53.4026 353.081L30.8806 353.124L30.8778 339.8ZM30.8671 277.294H31.0058L30.9896 277.311H49.0501V294.615H49.0816V295.609H48.7863L49.019 295.377H30.8978V279.382H30.8662L30.8671 277.294ZM30.8987 357.555H49.0501V375.547H30.8987V357.555Z" fill="white"/>
<path d="M190.85 357.555H209.003V375.547H190.85V357.555ZM209.033 295.61H208.738L208.971 295.378H190.85V279.383H190.819V277.294H190.958L190.942 277.31H209.003V294.615H209.033V295.61ZM186.563 311.646L174.62 323.591L171.605 326.606L174.62 329.621L186.563 341.567V353.126H174.196L162.658 341.585L159.641 338.57L145.084 353.126H133.335V340.951L147.675 326.61L133.335 312.27V299.882H144.763L156.624 311.742L159.641 314.757L162.658 311.742L174.516 299.882H186.564L186.563 311.646ZM129.036 375.547H110.865V357.555H129.036V375.547ZM213.29 273.028L186.561 272.983L186.553 294.616H186.563V295.376H172.983L172.75 295.608H172.643L159.641 308.609L146.638 295.608H146.532L146.3 295.376H133.336L133.356 272.98L106.567 273.025L106.607 299.873H129.069V314.023L141.646 326.601L129.069 339.178V353.12L106.607 353.077L106.567 379.807H133.356L133.336 357.549H146.689L159.642 344.595L172.596 357.549H186.557L186.565 379.807H213.294L213.354 353.077L190.832 353.12V339.794L177.638 326.599L190.832 313.405V299.869H213.354L213.29 273.028ZM129.052 295.378H110.869V279.383H110.858V277.31H128.342L128.325 277.294H129.039V294.615H129.05L129.052 295.378Z" fill="white"/>
<path d="M350.8 357.555H368.951V375.547H350.8V357.555ZM368.983 295.61H368.688L368.92 295.378H350.8V279.383H350.767V277.294H350.907L350.89 277.31H368.951V294.615H368.983V295.61ZM346.513 311.646L334.569 323.591L331.553 326.606L334.569 329.621L346.513 341.567V353.126H334.146L322.606 341.585L319.589 338.57L305.032 353.126H293.283V340.951L307.624 326.61L293.283 312.27V299.882H304.712L316.574 311.742L319.589 314.757L322.606 311.742L334.466 299.882H346.514L346.513 311.646ZM288.986 375.547H270.812V357.555H288.986V375.547ZM373.238 273.028L346.51 272.983L346.502 294.616H346.513V295.376H332.932L332.699 295.608H332.591L319.589 308.609L306.586 295.608H306.48L306.248 295.376H293.284L293.304 272.98L266.517 273.025L266.556 299.873H289.018V314.023L301.595 326.601L289.018 339.178V353.12L266.556 353.077L266.517 379.807H293.304L293.284 357.549H306.639L319.593 344.595L332.547 357.549H346.508L346.517 379.807H373.245L373.307 353.077L350.785 353.12V339.794L337.59 326.599L350.785 313.405V299.869H373.307L373.238 273.028ZM289 295.378H270.817V279.383H270.808V277.31H288.291L288.275 277.294H288.99V294.615H289V295.378Z" fill="white"/>
<path d="M510.749 357.555H528.902V375.547H510.749V357.555ZM528.933 295.61H528.639L528.871 295.378H510.749V279.383H510.718V277.294H510.857L510.841 277.31H528.902V294.615H528.931L528.933 295.61ZM506.463 311.646L494.519 323.591L491.504 326.606L494.519 329.621L506.463 341.567V353.126H494.096L482.557 341.585L479.54 338.57L464.984 353.126H453.234V340.951L467.574 326.61L453.234 312.27V299.882H464.663L476.524 311.742L479.54 314.757L482.557 311.742L494.416 299.882H506.464L506.463 311.646ZM448.937 375.547H430.764V357.555H448.937V375.547ZM533.189 273.028L506.461 272.983L506.453 294.616H506.463V295.376H492.883L492.65 295.608H492.543L479.54 308.609L466.539 295.608H466.432L466.199 295.376H453.235L453.255 272.98L426.468 273.025L426.508 299.873H448.968V314.023L461.546 326.601L448.968 339.178V353.12L426.508 353.077L426.468 379.807H453.255L453.235 357.549H466.588L479.541 344.595L492.495 357.549H506.456L506.464 379.807H533.192L533.254 353.077L510.731 353.12V339.794L497.537 326.599L510.731 313.405V299.869H533.254L533.189 273.028ZM448.951 295.378H430.768V279.383H430.756V277.31H448.241L448.223 277.294H448.939V294.615H448.949L448.951 295.378Z" fill="white"/>
<path d="M639.803 338.885L639.488 338.57L624.931 353.126H613.181V340.951L627.522 326.611L613.181 312.27V299.882H624.611L636.472 311.742L639.488 314.758L639.803 314.443V308.303L639.488 308.619L626.487 295.618H626.379L626.146 295.386H613.182L613.204 272.99L586.417 273.035L586.455 299.882H608.916V314.033L621.495 326.611L608.916 339.188V353.13L586.455 353.086L586.417 379.817H613.204L613.182 357.559H626.539L639.492 344.605L639.807 344.919L639.803 338.885ZM608.896 295.378H590.713V279.383H590.702V277.311H608.186L608.17 277.294H608.886V294.615H608.896V295.378ZM608.886 375.547H590.712V357.555H608.886V375.547Z" fill="white"/>
<path d="M670.976 32.7303V19.4041L657.782 6.20891L657.99 6H651.955L651.748 6.20891L654.763 9.22425L666.707 21.1695V32.7293H654.34L642.8 21.1876L640.098 18.4866V24.5182L652.738 37.1579H666.699L666.707 59.4149H693.435L693.496 32.6855L670.976 32.7303ZM689.149 55.1498H670.998V37.1579H689.149V55.1498Z" fill="white"/>
<path d="M830.926 19.4041L817.732 6.20891L817.941 6H811.909L811.701 6.20891L814.717 9.22425L826.66 21.1695V32.7293H814.293L802.754 21.1876L799.737 18.1722L785.181 32.7303H773.431V20.5541L787.772 6.21378L787.563 6.00371H781.53L781.74 6.21378L769.163 18.7906V32.734L746.701 32.6904L746.663 59.4112H773.451L773.431 37.1539H786.788L799.741 24.2011L812.694 37.1539H826.655L826.664 59.4112H853.392L853.453 32.6818L830.931 32.7254L830.926 19.4041ZM769.134 55.1498H750.962V37.1579H769.134V55.1498ZM830.948 37.1579H849.1V55.1498H830.949L830.948 37.1579Z" fill="white"/>
<path d="M990.876 19.4041L977.682 6.20891L977.89 6H971.859L971.651 6.20891L974.666 9.22425L986.61 21.1695V32.7294H974.243L962.704 21.1876L959.686 18.1722L945.129 32.7303H933.381V20.5541L947.721 6.21378L947.511 6.00371H941.479L941.689 6.21378L929.112 18.7906V32.734L906.649 32.6904L906.61 59.4197H933.398L933.378 37.1625H946.737L959.691 24.2096L972.646 37.1625H986.607L986.615 59.4197H1013.34L1013.41 32.6904L990.883 32.734L990.876 19.4041ZM929.084 55.1498H910.911V37.1579H929.084V55.1498ZM990.898 37.1579H1009.05V55.1498H990.898V37.1579Z" fill="white"/>
<path d="M1150.83 19.4041L1137.63 6.20891L1137.84 6H1131.81L1131.6 6.20891L1134.62 9.22425L1146.56 21.1695V32.7294H1134.19L1122.65 21.1876L1119.64 18.1722L1105.08 32.7303H1093.33V20.5541L1107.67 6.21378L1107.46 6.00371H1101.43L1101.64 6.21378L1089.06 18.7906V32.734L1066.6 32.6904L1066.56 59.4197H1093.35L1093.33 37.1625H1106.69L1119.64 24.2096L1132.59 37.1625H1146.55L1146.56 59.4197H1173.29L1173.35 32.6904L1150.83 32.734L1150.83 19.4041ZM1089.03 55.1498H1070.86V37.1579H1089.03V55.1498ZM1150.85 37.1579H1169V55.1498H1150.85V37.1579Z" fill="white"/>
<path d="M1265.03 32.7305H1253.28V20.5543L1267.62 6.21397L1267.41 6.00391H1261.38L1261.59 6.21397L1249.01 18.7908V32.7342L1226.55 32.6906L1226.51 59.4199H1253.3L1253.28 37.1627H1266.64L1279.59 24.2098L1279.91 24.5231V18.4917L1279.59 18.1773L1265.03 32.7305ZM1248.98 55.15H1230.81V37.1581H1248.98V55.15Z" fill="white"/>
<path d="M750.973 117.325H769.126V135.317H750.973V117.325ZM769.157 55.3806H768.861L769.094 55.1478H750.973V39.1529H750.942V37.0636H751.081L751.064 37.0798H769.126V54.3843H769.157V55.3806ZM746.687 71.4153L734.742 83.3606L731.726 86.375L734.742 89.3913L746.687 101.336V112.896H734.32L722.78 101.355L719.762 98.3402L705.206 112.897H693.456V100.721L707.797 86.3806L693.456 72.0402V59.6533H704.886L716.747 71.512L719.762 74.5283L722.78 71.512L734.639 59.6533H746.688L746.687 71.4153ZM689.16 135.317H670.987V117.325H689.16V135.317ZM773.412 32.7994L746.684 32.754L746.676 54.3852H746.687V55.145H733.106L732.875 55.3778H732.767L719.764 68.3791L706.764 55.3778H706.656L706.423 55.145H693.459L693.48 32.751L666.693 32.7967L666.733 59.6429H689.193V73.7933L701.77 86.371L689.193 98.949V112.891L666.733 112.848L666.693 139.578H693.48L693.459 117.32H706.812L719.765 104.366L732.72 117.32H746.68L746.689 139.578H773.416L773.479 112.848L750.957 112.891V99.5653L737.763 86.3701L750.957 73.1761V59.6408H773.479L773.412 32.7994ZM689.173 55.1478H670.99V39.1529H670.98V37.0807H688.463L688.446 37.0645H689.162V54.3852H689.172L689.173 55.1478Z" fill="white"/>
<path d="M910.923 117.325H929.075V135.317H910.923V117.325ZM929.107 55.3806H928.81L929.043 55.1478H910.923V39.1529H910.892V37.0636H911.031L911.014 37.0798H929.075V54.3843H929.107V55.3806ZM906.636 71.4153L894.691 83.3606L891.676 86.375L894.691 89.3913L906.636 101.336V112.896H894.269L882.731 101.355L879.713 98.3402L865.157 112.897H853.406V100.721L867.746 86.3806L853.406 72.0402V59.6533H864.836L876.696 71.512L879.713 74.5283L882.731 71.512L894.588 59.6533H906.637L906.636 71.4153ZM849.11 135.317H830.937V117.325H849.11V135.317ZM933.361 32.7994L906.635 32.754L906.626 54.3852H906.636V55.145H893.056L892.823 55.3778H892.717L879.714 68.3791L866.712 55.3778H866.605L866.372 55.145H853.408L853.429 32.751L826.641 32.7967L826.681 59.6429H849.142V73.7933L861.719 86.371L849.142 98.949V112.891L826.681 112.848L826.641 139.578H853.429L853.408 117.32H866.762L879.715 104.366L892.668 117.32H906.629L906.637 139.578H933.364L933.427 112.848L910.905 112.891V99.5653L897.71 86.3701L910.905 73.1761V59.6408H933.427L933.361 32.7994ZM849.122 55.1478H830.94V39.1529H830.928V37.0807H848.413L848.395 37.0645H849.111V54.3852H849.122L849.122 55.1478Z" fill="white"/>
<path d="M1070.87 117.325H1089.03V135.317H1070.87V117.325ZM1089.06 55.3806H1088.76L1088.99 55.1478H1070.87V39.1529H1070.84V37.0636H1070.98L1070.96 37.0798H1089.03V54.3843H1089.06V55.3806ZM1066.59 71.4153L1054.64 83.3606L1051.63 86.375L1054.64 89.3913L1066.59 101.336V112.896H1054.22L1042.68 101.355L1039.66 98.3402L1025.11 112.897H1013.36V100.721L1027.7 86.3806L1013.36 72.0402V59.6533H1024.79L1036.65 71.512L1039.66 74.5283L1042.68 71.512L1054.54 59.6533H1066.59L1066.59 71.4153ZM1009.06 135.317H990.888V117.325H1009.06V135.317ZM1093.31 32.7994L1066.58 32.754L1066.58 54.3852H1066.59V55.145H1053.01L1052.77 55.3778H1052.67L1039.66 68.3791L1026.66 55.3778H1026.55L1026.32 55.145H1013.36L1013.38 32.751L986.59 32.7967L986.63 59.6429H1009.09V73.7933L1021.67 86.371L1009.09 98.949V112.891L986.63 112.848L986.59 139.578H1013.38L1013.36 117.32H1026.71L1039.66 104.366L1052.62 117.32H1066.58L1066.59 139.578H1093.32L1093.38 112.848L1070.86 112.891V99.5653L1057.66 86.3701L1070.86 73.1761V59.6408H1093.38L1093.31 32.7994ZM1009.07 55.1478H990.892V39.1529H990.881V37.0807H1008.37L1008.35 37.0645H1009.06V54.3852H1009.07L1009.07 55.1478Z" fill="white"/>
<path d="M1230.82 117.325H1248.97V135.317H1230.82V117.325ZM1249.01 55.3806H1248.71L1248.94 55.1478H1230.82V39.1529H1230.79V37.0636H1230.93L1230.91 37.0798H1248.97V54.3843H1249L1249.01 55.3806ZM1226.54 71.4153L1214.59 83.3606L1211.58 86.375L1214.59 89.3913L1226.54 101.336V112.896H1214.17L1202.63 101.355L1199.61 98.3402L1185.06 112.897H1173.3V100.721L1187.65 86.3806L1173.3 72.0402V59.6533H1184.74L1196.6 71.512L1199.61 74.5283L1202.63 71.512L1214.49 59.6533H1226.54L1226.54 71.4153ZM1169.01 135.317H1150.84V117.325H1169.01V135.317ZM1253.26 32.7994L1226.53 32.754L1226.53 54.3852H1226.54V55.145H1212.96L1212.72 55.3778H1212.62L1199.61 68.3791L1186.61 55.3778H1186.5L1186.27 55.145H1173.31L1173.33 32.751L1146.54 32.7967L1146.58 59.6429H1169.04V73.7933L1181.62 86.371L1169.04 98.949V112.891L1146.58 112.848L1146.54 139.578H1173.33L1173.31 117.32H1186.66L1199.61 104.366L1212.57 117.32H1226.53L1226.54 139.578H1253.27L1253.33 112.848L1230.81 112.891V99.5653L1217.61 86.3701L1230.81 73.1761V59.6408H1253.33L1253.26 32.7994ZM1169.02 55.1478H1150.84V39.1529H1150.83V37.0807H1168.32L1168.3 37.0645H1169.01V54.3852H1169.02L1169.02 55.1478Z" fill="white"/>
<path d="M670.976 179.601L657.782 166.406L670.976 153.212V139.677H693.498L693.436 112.831L666.709 112.784L666.701 134.416H666.711V135.176H653.13L652.898 135.409H652.79L640.102 148.096V154.235L642.804 151.533L654.664 139.674H666.712V151.443L654.768 163.389L651.752 166.403L654.768 169.42L666.712 181.364V192.925H654.345L642.805 181.384L640.103 178.683V184.715L652.743 197.352H666.703L666.712 219.61H693.439L693.501 192.881L670.979 192.925L670.976 179.601ZM670.965 117.097H671.104L671.088 117.112H689.148V134.417H689.18V135.413H688.885L689.117 135.18H670.996V119.185H670.965L670.965 117.097ZM670.997 197.355H689.148V215.347H670.997V197.355Z" fill="white"/>
<path d="M830.949 197.355H849.101V215.347H830.949V197.355ZM849.132 135.412H848.836L849.069 135.179H830.949V119.184H830.917V117.095H831.057L831.04 117.11H849.101V134.415H849.132V135.412ZM826.662 151.447L814.719 163.392L811.703 166.406L814.719 169.422L826.662 181.367V192.928H814.295L802.756 181.387L799.739 178.371L785.183 192.928H773.433V180.752L787.774 166.412L773.433 152.071V139.684H784.861L796.722 151.543L799.739 154.56L802.756 151.543L814.615 139.684H826.663L826.662 151.447ZM769.135 215.347H750.963V197.355H769.135V215.347ZM853.388 112.831L826.66 112.784L826.652 134.416H826.662V135.176H813.081L812.848 135.409H812.741L799.739 148.409L786.736 135.409H786.63L786.398 135.176H773.434L773.454 112.781L746.666 112.828L746.706 139.674H769.168V153.825L781.745 166.402L769.168 178.98V192.923L746.706 192.879L746.666 219.608H773.454L773.434 197.35H786.788L799.741 184.397L812.694 197.35H826.655L826.664 219.608H853.392L853.453 192.879L830.931 192.923V179.597L817.736 166.401L830.931 153.207V139.672H853.453L853.388 112.831ZM769.15 135.179H750.967V119.184H750.956V117.111H768.441L768.423 117.096H769.138V134.416H769.149L769.15 135.179Z" fill="white"/>
<path d="M990.898 197.355H1009.05V215.347H990.898V197.355ZM1009.08 135.412H1008.79L1009.02 135.179H990.898V119.184H990.866V117.095H991.005L990.989 117.11H1009.05V134.415H1009.08V135.412ZM986.611 151.447L974.667 163.392L971.652 166.406L974.667 169.422L986.611 181.367V192.928H974.244L962.704 181.387L959.688 178.371L945.13 192.928H933.382V180.752L947.722 166.412L933.382 152.071V139.684H944.81L956.672 151.543L959.688 154.56L962.704 151.543L974.564 139.684H986.612L986.611 151.447ZM929.084 215.347H910.911V197.355H929.084V215.347ZM1013.34 112.831L986.608 112.784L986.6 134.416H986.611V135.176H973.031L972.798 135.409H972.69L959.688 148.409L946.685 135.409H946.579L946.347 135.176H933.382L933.402 112.781L906.615 112.828L906.654 139.674H929.116V153.825L941.693 166.402L929.116 178.98V192.923L906.654 192.879L906.615 219.608H933.402L933.382 197.35H946.737L959.691 184.397L972.646 197.35H986.607L986.615 219.608H1013.34L1013.41 192.879L990.883 192.923V179.597L977.689 166.401L990.883 153.207V139.672H1013.41L1013.34 112.831ZM929.098 135.179H910.915V119.184H910.906V117.111H928.389L928.373 117.096H929.088V134.416H929.098V135.179Z" fill="white"/>
<path d="M1150.85 197.355H1169V215.347H1150.85V197.355ZM1169.03 135.412H1168.74L1168.97 135.179H1150.85V119.184H1150.82V117.095H1150.95L1150.94 117.11H1169V134.415H1169.03L1169.03 135.412ZM1146.56 151.447L1134.62 163.392L1131.6 166.406L1134.62 169.422L1146.56 181.367V192.928H1134.19L1122.66 181.387L1119.64 178.371L1105.08 192.928H1093.33V180.752L1107.67 166.412L1093.33 152.071V139.684H1104.76L1116.62 151.543L1119.64 154.56L1122.66 151.543L1134.51 139.684H1146.56L1146.56 151.447ZM1089.04 215.347H1070.86V197.355H1089.04V215.347ZM1173.29 112.831L1146.56 112.784L1146.55 134.416H1146.56V135.176H1132.98L1132.75 135.409H1132.64L1119.64 148.409L1106.64 135.409H1106.53L1106.3 135.176H1093.33L1093.35 112.781L1066.57 112.828L1066.61 139.674H1089.07V153.825L1101.64 166.402L1089.07 178.98V192.923L1066.61 192.879L1066.57 219.608H1093.35L1093.33 197.35H1106.69L1119.64 184.397L1132.59 197.35H1146.55L1146.56 219.608H1173.29L1173.35 192.879L1150.83 192.923V179.597L1137.64 166.401L1150.83 153.207V139.672H1173.35L1173.29 112.831ZM1089.05 135.179H1070.87V119.184H1070.85V117.111H1088.34L1088.32 117.096H1089.04V134.416H1089.05L1089.05 135.179Z" fill="white"/>
<path d="M1279.9 178.686L1279.59 178.371L1265.03 192.928H1253.28V180.752L1267.62 166.412L1253.28 152.071V139.684H1264.71L1276.57 151.543L1279.59 154.559L1279.9 154.245V148.106L1279.59 148.42L1266.59 135.419H1266.48L1266.24 135.186H1253.28L1253.3 112.792L1226.52 112.838L1226.55 139.684H1249.01V153.835L1261.59 166.413L1249.01 178.99V192.933L1226.55 192.889L1226.52 219.619H1253.3L1253.28 197.361H1266.64L1279.59 184.408L1279.91 184.723L1279.9 178.686ZM1248.99 135.179H1230.81V119.184H1230.8V117.111H1248.28L1248.27 117.096H1248.98V134.416H1248.99V135.179ZM1248.98 215.347H1230.81V197.355H1248.98V215.347Z" fill="white"/>
<path d="M750.973 277.524H769.126V295.516H750.973V277.524ZM769.157 215.58H768.861L769.094 215.347H750.973V199.352H750.942V197.263H751.081L751.064 197.279H769.126V214.585H769.157V215.58ZM746.687 231.615L734.742 243.561L731.726 246.576L734.742 249.591L746.687 261.537V273.096H734.32L722.78 261.555L719.762 258.539L705.206 273.096H693.456V260.92L707.797 246.58L693.456 232.239V219.845H704.886L716.747 231.705L719.762 234.72L722.78 231.705L734.638 219.845H746.687V231.615ZM689.16 295.517H670.987V277.525H689.16V295.517ZM773.412 193L746.684 192.954L746.676 214.586H746.687V215.346H733.106L732.875 215.579H732.767L719.764 228.58L706.764 215.579H706.656L706.423 215.346H693.459L693.48 192.952L666.693 192.998L666.733 219.844H689.193V233.994L701.77 246.572L689.193 259.148V273.092L666.733 273.048L666.693 299.777H693.48L693.459 277.519H706.812L719.765 264.566L732.72 277.519H746.68L746.689 299.777H773.416L773.479 273.048L750.957 273.092V259.766L737.763 246.571L750.957 233.377V219.845H773.479L773.412 193ZM689.173 215.348H670.99V199.353H670.98V197.281H688.463L688.446 197.265H689.162V214.586H689.172L689.173 215.348Z" fill="white"/>
<path d="M910.923 277.524H929.075V295.516H910.923V277.524ZM929.107 215.58H928.81L929.043 215.347H910.923V199.352H910.892V197.263H911.031L911.014 197.279H929.075V214.585H929.107V215.58ZM906.636 231.615L894.691 243.561L891.676 246.576L894.691 249.591L906.636 261.537V273.096H894.269L882.731 261.555L879.713 258.539L865.157 273.096H853.406V260.92L867.746 246.58L853.406 232.239V219.845H864.836L876.696 231.705L879.713 234.72L882.731 231.705L894.588 219.845H906.636V231.615ZM849.11 295.517H830.937V277.525H849.11V295.517ZM933.361 193L906.635 192.954L906.626 214.586H906.636V215.346H893.056L892.823 215.579H892.717L879.714 228.58L866.712 215.579H866.605L866.372 215.346H853.408L853.429 192.952L826.641 192.998L826.681 219.844H849.142V233.994L861.719 246.572L849.142 259.148V273.092L826.681 273.048L826.641 299.777H853.429L853.408 277.519H866.762L879.715 264.566L892.668 277.519H906.629L906.637 299.777H933.364L933.427 273.048L910.905 273.092V259.766L897.71 246.571L910.905 233.377V219.845H933.427L933.361 193ZM849.122 215.348H830.94V199.353H830.928V197.281H848.413L848.395 197.265H849.111V214.586H849.122L849.122 215.348Z" fill="white"/>
<path d="M1070.87 277.524H1089.03V295.516H1070.87V277.524ZM1089.06 215.58H1088.76L1088.99 215.347H1070.87V199.352H1070.84V197.263H1070.98L1070.96 197.279H1089.03V214.585H1089.06V215.58ZM1066.59 231.615L1054.64 243.561L1051.63 246.576L1054.64 249.591L1066.59 261.537V273.096H1054.22L1042.68 261.555L1039.66 258.539L1025.11 273.096H1013.36V260.92L1027.7 246.58L1013.36 232.239V219.845H1024.79L1036.65 231.705L1039.66 234.72L1042.68 231.705L1054.54 219.845H1066.59L1066.59 231.615ZM1009.06 295.517H990.888V277.525H1009.06V295.517ZM1093.31 193L1066.58 192.954L1066.58 214.586H1066.59V215.346H1053.01L1052.77 215.579H1052.67L1039.66 228.58L1026.66 215.579H1026.55L1026.32 215.346H1013.36L1013.38 192.952L986.59 192.998L986.63 219.844H1009.09V233.994L1021.67 246.572L1009.09 259.148V273.092L986.63 273.048L986.59 299.777H1013.38L1013.36 277.519H1026.71L1039.66 264.566L1052.62 277.519H1066.58L1066.59 299.777H1093.32L1093.38 273.048L1070.86 273.092V259.766L1057.66 246.571L1070.86 233.377V219.845H1093.38L1093.31 193ZM1009.07 215.348H990.892V199.353H990.881V197.281H1008.37L1008.35 197.265H1009.06V214.586H1009.07L1009.07 215.348Z" fill="white"/>
<path d="M1230.82 277.524H1248.97V295.516H1230.82V277.524ZM1249.01 215.58H1248.71L1248.94 215.347H1230.82V199.352H1230.79V197.263H1230.93L1230.91 197.279H1248.97V214.585H1249L1249.01 215.58ZM1226.54 231.615L1214.59 243.561L1211.58 246.576L1214.59 249.591L1226.54 261.537V273.096H1214.17L1202.63 261.555L1199.61 258.539L1185.06 273.096H1173.3V260.92L1187.65 246.58L1173.3 232.239V219.845H1184.74L1196.6 231.705L1199.61 234.72L1202.63 231.705L1214.49 219.845H1226.54L1226.54 231.615ZM1169.01 295.517H1150.84V277.525H1169.01V295.517ZM1253.26 193L1226.53 192.954L1226.53 214.586H1226.54V215.346H1212.96L1212.72 215.579H1212.62L1199.61 228.58L1186.61 215.579H1186.5L1186.27 215.346H1173.31L1173.33 192.952L1146.54 192.998L1146.58 219.844H1169.04V233.994L1181.62 246.572L1169.04 259.148V273.092L1146.58 273.048L1146.54 299.777H1173.33L1173.31 277.519H1186.66L1199.61 264.566L1212.57 277.519H1226.53L1226.54 299.777H1253.27L1253.33 273.048L1230.81 273.092V259.766L1217.61 246.571L1230.81 233.377V219.845H1253.33L1253.26 193ZM1169.02 215.348H1150.84V199.353H1150.83V197.281H1168.32L1168.3 197.265H1169.01V214.586H1169.02L1169.02 215.348Z" fill="white"/>
<path d="M670.976 339.8L657.782 326.605L670.976 313.411V299.875H693.498L693.436 273.027L666.709 272.982L666.701 294.615H666.711V295.375H653.13L652.898 295.608H652.79L640.102 308.294V314.433L642.804 311.733L654.664 299.873H666.712V311.643L651.752 326.603L654.768 329.618L666.712 341.565V353.123H654.345L642.805 341.583L640.103 338.882V344.913L652.743 357.553H666.703L666.712 379.811H693.439L693.501 353.081L670.979 353.124L670.976 339.8ZM670.965 277.294H671.104L671.088 277.311H689.148V294.615H689.18V295.609H688.885L689.117 295.377H670.996V279.382H670.965L670.965 277.294ZM670.997 357.555H689.148V375.547H670.997V357.555Z" fill="white"/>
<path d="M830.949 357.555H849.101V375.547H830.949V357.555ZM849.132 295.61H848.836L849.069 295.378H830.949V279.383H830.917V277.294H831.057L831.04 277.31H849.101V294.615H849.132V295.61ZM826.662 311.646L814.719 323.591L811.703 326.606L814.719 329.621L826.662 341.567V353.126H814.295L802.756 341.585L799.739 338.57L785.183 353.126H773.433V340.951L787.774 326.61L773.433 312.27V299.882H784.861L796.722 311.742L799.739 314.757L802.756 311.742L814.615 299.882H826.663L826.662 311.646ZM769.135 375.547H750.963V357.555H769.135V375.547ZM853.388 273.028L826.66 272.983L826.652 294.616H826.662V295.376H813.081L812.848 295.608H812.741L799.739 308.609L786.736 295.608H786.63L786.398 295.376H773.434L773.454 272.98L746.666 273.025L746.706 299.873H769.168V314.023L781.745 326.601L769.168 339.178V353.12L746.706 353.077L746.666 379.807H773.454L773.434 357.549H786.788L799.741 344.595L812.694 357.549H826.655L826.664 379.807H853.392L853.453 353.077L830.931 353.12V339.794L817.736 326.599L830.931 313.405V299.869H853.453L853.388 273.028ZM769.15 295.378H750.967V279.383H750.956V277.31H768.441L768.423 277.294H769.138V294.615H769.149L769.15 295.378Z" fill="white"/>
<path d="M990.898 357.555H1009.05V375.547H990.898V357.555ZM1009.08 295.61H1008.79L1009.02 295.378H990.898V279.383H990.866V277.294H991.005L990.989 277.31H1009.05V294.615H1009.08V295.61ZM986.611 311.646L974.667 323.591L971.652 326.606L974.667 329.621L986.611 341.567V353.126H974.244L962.704 341.585L959.688 338.57L945.13 353.126H933.382V340.951L947.722 326.61L933.382 312.27V299.882H944.81L956.672 311.742L959.688 314.757L962.704 311.742L974.564 299.882H986.612L986.611 311.646ZM929.084 375.547H910.911V357.555H929.084V375.547ZM1013.34 273.028L986.608 272.983L986.6 294.616H986.611V295.376H973.031L972.798 295.608H972.69L959.688 308.609L946.685 295.608H946.579L946.347 295.376H933.382L933.402 272.98L906.615 273.025L906.654 299.873H929.116V314.023L941.693 326.601L929.116 339.178V353.12L906.654 353.077L906.615 379.807H933.402L933.382 357.549H946.737L959.691 344.595L972.646 357.549H986.607L986.615 379.807H1013.34L1013.41 353.077L990.883 353.12V339.794L977.689 326.599L990.883 313.405V299.869H1013.41L1013.34 273.028ZM929.098 295.378H910.915V279.383H910.906V277.31H928.389L928.373 277.294H929.088V294.615H929.098V295.378Z" fill="white"/>
<path d="M1150.85 357.555H1169V375.547H1150.85V357.555ZM1169.03 295.61H1168.74L1168.97 295.378H1150.85V279.383H1150.82V277.294H1150.95L1150.94 277.31H1169V294.615H1169.03L1169.03 295.61ZM1146.56 311.646L1134.62 323.591L1131.6 326.606L1134.62 329.621L1146.56 341.567V353.126H1134.19L1122.66 341.585L1119.64 338.57L1105.08 353.126H1093.33V340.951L1107.67 326.61L1093.33 312.27V299.882H1104.76L1116.62 311.742L1119.64 314.757L1122.66 311.742L1134.51 299.882H1146.56L1146.56 311.646ZM1089.04 375.547H1070.86V357.555H1089.04V375.547ZM1173.29 273.028L1146.56 272.983L1146.55 294.616H1146.56V295.376H1132.98L1132.75 295.608H1132.64L1119.64 308.609L1106.64 295.608H1106.53L1106.3 295.376H1093.33L1093.35 272.98L1066.57 273.025L1066.61 299.873H1089.07V314.023L1101.64 326.601L1089.07 339.178V353.12L1066.61 353.077L1066.57 379.807H1093.35L1093.33 357.549H1106.69L1119.64 344.595L1132.59 357.549H1146.55L1146.56 379.807H1173.29L1173.35 353.077L1150.83 353.12V339.794L1137.64 326.599L1150.83 313.405V299.869H1173.35L1173.29 273.028ZM1089.05 295.378H1070.87V279.383H1070.85V277.31H1088.34L1088.32 277.294H1089.04V294.615H1089.05L1089.05 295.378Z" fill="white"/>
<path d="M1279.9 338.885L1279.59 338.57L1265.03 353.126H1253.28V340.951L1267.62 326.611L1253.28 312.27V299.882H1264.71L1276.57 311.742L1279.59 314.758L1279.9 314.443V308.303L1279.59 308.619L1266.59 295.618H1266.48L1266.24 295.386H1253.28L1253.3 272.99L1226.52 273.035L1226.55 299.882H1249.01V314.033L1261.59 326.611L1249.01 339.188V353.13L1226.55 353.086L1226.52 379.817H1253.3L1253.28 357.559H1266.64L1279.59 344.605L1279.91 344.919L1279.9 338.885ZM1248.99 295.378H1230.81V279.383H1230.8V277.311H1248.28L1248.27 277.294H1248.98V294.615H1248.99V295.378ZM1248.98 375.547H1230.81V357.555H1248.98V375.547Z" fill="white"/>
<path d="M1311.07 32.7303V19.4041L1297.88 6.20891L1298.09 6H1292.05L1291.85 6.20891L1294.86 9.22425L1306.81 21.1695V32.7293H1294.44L1282.9 21.1876L1280.2 18.4866V24.5182L1292.84 37.1579H1306.8L1306.81 59.4149H1333.53L1333.59 32.6855L1311.07 32.7303ZM1329.25 55.1498H1311.1V37.1579H1329.25V55.1498Z" fill="white"/>
<path d="M1471.02 19.4041L1457.83 6.20891L1458.04 6H1452.01L1451.8 6.20891L1454.82 9.22425L1466.76 21.1695V32.7293H1454.39L1442.85 21.1876L1439.84 18.1722L1425.28 32.7303H1413.53V20.5541L1427.87 6.21378L1427.66 6.00371H1421.63L1421.84 6.21378L1409.26 18.7906V32.734L1386.8 32.6904L1386.76 59.4112H1413.55L1413.53 37.1539H1426.89L1439.84 24.2011L1452.79 37.1539H1466.75L1466.76 59.4112H1493.49L1493.55 32.6818L1471.03 32.7254L1471.02 19.4041ZM1409.23 55.1498H1391.06V37.1579H1409.23V55.1498ZM1471.05 37.1579H1489.2V55.1498H1471.05L1471.05 37.1579Z" fill="white"/>
<path d="M1630.97 19.4041L1617.78 6.20891L1617.99 6H1611.96L1611.75 6.20891L1614.76 9.22425L1626.71 21.1695V32.7294H1614.34L1602.8 21.1876L1599.78 18.1722L1585.23 32.7303H1573.48V20.5541L1587.82 6.21378L1587.61 6.00371H1581.58L1581.79 6.21378L1569.21 18.7906V32.734L1546.75 32.6904L1546.71 59.4197H1573.5L1573.48 37.1625H1586.84L1599.79 24.2096L1612.74 37.1625H1626.7L1626.71 59.4197H1653.44L1653.5 32.6904L1630.98 32.734L1630.97 19.4041ZM1569.18 55.1498H1551.01V37.1579H1569.18V55.1498ZM1631 37.1579H1649.15V55.1498H1631V37.1579Z" fill="white"/>
<path d="M1790.92 19.4041L1777.73 6.20891L1777.94 6H1771.91L1771.7 6.20891L1774.71 9.22425L1786.66 21.1695V32.7294H1774.29L1762.75 21.1876L1759.74 18.1722L1745.18 32.7303H1733.43V20.5541L1747.77 6.21378L1747.56 6.00371H1741.53L1741.74 6.21378L1729.16 18.7906V32.734L1706.7 32.6904L1706.66 59.4197H1733.45L1733.43 37.1625H1746.79L1759.74 24.2096L1772.69 37.1625H1786.65L1786.66 59.4197H1813.39L1813.45 32.6904L1790.93 32.734L1790.92 19.4041ZM1729.13 55.1498H1710.96V37.1579H1729.13V55.1498ZM1790.95 37.1579H1809.1V55.1498H1790.95V37.1579Z" fill="white"/>
<path d="M1905.13 32.7305H1893.38V20.5543L1907.72 6.21397L1907.51 6.00391H1901.48L1901.69 6.21397L1889.11 18.7908V32.7342L1866.65 32.6906L1866.61 59.4199H1893.4L1893.37 37.1627H1906.74L1919.69 24.2098L1920 24.5231V18.4917L1919.69 18.1773L1905.13 32.7305ZM1889.08 55.15H1870.91V37.1581H1889.08V55.15Z" fill="white"/>
<path d="M1391.07 117.325H1409.22V135.317H1391.07V117.325ZM1409.26 55.3806H1408.96L1409.19 55.1478H1391.07V39.1529H1391.04V37.0636H1391.18L1391.16 37.0798H1409.22V54.3843H1409.26V55.3806ZM1386.79 71.4153L1374.84 83.3606L1371.82 86.375L1374.84 89.3913L1386.79 101.336V112.896H1374.42L1362.88 101.355L1359.86 98.3402L1345.3 112.897H1333.55V100.721L1347.9 86.3806L1333.55 72.0402V59.6533H1344.98L1356.85 71.512L1359.86 74.5283L1362.88 71.512L1374.74 59.6533H1386.79L1386.79 71.4153ZM1329.26 135.317H1311.09V117.325H1329.26V135.317ZM1413.51 32.7994L1386.78 32.754L1386.77 54.3852H1386.79V55.145H1373.2L1372.97 55.3778H1372.87L1359.86 68.3791L1346.86 55.3778H1346.75L1346.52 55.145H1333.56L1333.58 32.751L1306.79 32.7967L1306.83 59.6429H1329.29V73.7933L1341.87 86.371L1329.29 98.949V112.891L1306.83 112.848L1306.79 139.578H1333.58L1333.56 117.32H1346.91L1359.86 104.366L1372.82 117.32H1386.78L1386.79 139.578H1413.51L1413.58 112.848L1391.06 112.891V99.5653L1377.86 86.3701L1391.06 73.1761V59.6408H1413.58L1413.51 32.7994ZM1329.27 55.1478H1311.09V39.1529H1311.08V37.0807H1328.56L1328.54 37.0645H1329.26V54.3852H1329.27L1329.27 55.1478Z" fill="white"/>
<path d="M1551.02 117.325H1569.17V135.317H1551.02V117.325ZM1569.2 55.3806H1568.91L1569.14 55.1478H1551.02V39.1529H1550.99V37.0636H1551.13L1551.11 37.0798H1569.17V54.3843H1569.2V55.3806ZM1546.73 71.4153L1534.79 83.3606L1531.77 86.375L1534.79 89.3913L1546.73 101.336V112.896H1534.37L1522.83 101.355L1519.81 98.3402L1505.25 112.897H1493.5V100.721L1507.84 86.3806L1493.5 72.0402V59.6533H1504.93L1516.79 71.512L1519.81 74.5283L1522.83 71.512L1534.69 59.6533H1546.74L1546.73 71.4153ZM1489.21 135.317H1471.04V117.325H1489.21V135.317ZM1573.46 32.7994L1546.73 32.754L1546.72 54.3852H1546.73V55.145H1533.15L1532.92 55.3778H1532.82L1519.81 68.3791L1506.81 55.3778H1506.7L1506.47 55.145H1493.51L1493.53 32.751L1466.74 32.7967L1466.78 59.6429H1489.24V73.7933L1501.82 86.371L1489.24 98.949V112.891L1466.78 112.848L1466.74 139.578H1493.53L1493.51 117.32H1506.86L1519.81 104.366L1532.77 117.32H1546.73L1546.74 139.578H1573.46L1573.52 112.848L1551 112.891V99.5653L1537.81 86.3701L1551 73.1761V59.6408H1573.52L1573.46 32.7994ZM1489.22 55.1478H1471.04V39.1529H1471.03V37.0807H1488.51L1488.49 37.0645H1489.21V54.3852H1489.22L1489.22 55.1478Z" fill="white"/>
<path d="M1710.97 117.325H1729.12V135.317H1710.97V117.325ZM1729.15 55.3806H1728.86L1729.09 55.1478H1710.97V39.1529H1710.94V37.0636H1711.08L1711.06 37.0798H1729.12V54.3843H1729.15V55.3806ZM1706.68 71.4153L1694.74 83.3606L1691.73 86.375L1694.74 89.3913L1706.68 101.336V112.896H1694.32L1682.78 101.355L1679.76 98.3402L1665.21 112.897H1653.46V100.721L1667.8 86.3806L1653.46 72.0402V59.6533H1664.88L1676.74 71.512L1679.76 74.5283L1682.78 71.512L1694.64 59.6533H1706.69L1706.68 71.4153ZM1649.16 135.317H1630.99V117.325H1649.16V135.317ZM1733.41 32.7994L1706.68 32.754L1706.67 54.3852H1706.68V55.145H1693.1L1692.87 55.3778H1692.76L1679.76 68.3791L1666.76 55.3778H1666.65L1666.42 55.145H1653.46L1653.48 32.751L1626.69 32.7967L1626.73 59.6429H1649.19V73.7933L1661.77 86.371L1649.19 98.949V112.891L1626.73 112.848L1626.69 139.578H1653.48L1653.46 117.32H1666.81L1679.76 104.366L1692.72 117.32H1706.68L1706.69 139.578H1733.42L1733.48 112.848L1710.95 112.891V99.5653L1697.76 86.3701L1710.95 73.1761V59.6408H1733.48L1733.41 32.7994ZM1649.17 55.1478H1630.99V39.1529H1630.98V37.0807H1648.46L1648.45 37.0645H1649.16V54.3852H1649.17L1649.17 55.1478Z" fill="white"/>
<path d="M1870.92 117.325H1889.07V135.317H1870.92V117.325ZM1889.1 55.3806H1888.81L1889.04 55.1478H1870.92V39.1529H1870.89V37.0636H1871.03L1871.01 37.0798H1889.07V54.3843H1889.1L1889.1 55.3806ZM1866.64 71.4153L1854.69 83.3606L1851.68 86.375L1854.69 89.3913L1866.64 101.336V112.896H1854.27L1842.73 101.355L1839.71 98.3402L1825.15 112.897H1813.4V100.721L1827.74 86.3806L1813.4 72.0402V59.6533H1824.83L1836.69 71.512L1839.71 74.5283L1842.73 71.512L1854.59 59.6533H1866.64L1866.64 71.4153ZM1809.11 135.317H1790.94V117.325H1809.11V135.317ZM1893.36 32.7994L1866.63 32.754L1866.62 54.3852H1866.64V55.145H1853.05L1852.82 55.3778H1852.71L1839.71 68.3791L1826.71 55.3778H1826.6L1826.37 55.145H1813.4L1813.43 32.751L1786.64 32.7967L1786.68 59.6429H1809.14V73.7933L1821.72 86.371L1809.14 98.949V112.891L1786.68 112.848L1786.64 139.578H1813.43L1813.4 117.32H1826.76L1839.71 104.366L1852.67 117.32H1866.63L1866.64 139.578H1893.37L1893.43 112.848L1870.91 112.891V99.5653L1857.71 86.3701L1870.91 73.1761V59.6408H1893.43L1893.36 32.7994ZM1809.12 55.1478H1790.94V39.1529H1790.93V37.0807H1808.41L1808.4 37.0645H1809.11V54.3852H1809.12L1809.12 55.1478Z" fill="white"/>
<path d="M1311.07 179.601L1297.88 166.406L1311.07 153.212V139.677H1333.6L1333.53 112.831L1306.81 112.784L1306.8 134.416H1306.81V135.176H1293.23L1293 135.409H1292.89L1280.2 148.096V154.235L1282.9 151.533L1294.76 139.674H1306.81V151.443L1294.87 163.389L1291.85 166.403L1294.87 169.42L1306.81 181.364V192.925H1294.44L1282.9 181.384L1280.2 178.683V184.715L1292.84 197.352H1306.8L1306.81 219.61H1333.54L1333.6 192.881L1311.08 192.925L1311.07 179.601ZM1311.06 117.097H1311.2L1311.19 117.112H1329.25V134.417H1329.28V135.413H1328.98L1329.22 135.18H1311.09V119.185H1311.06L1311.06 117.097ZM1311.1 197.355H1329.25V215.347H1311.1V197.355Z" fill="white"/>
<path d="M1471.05 197.355H1489.2V215.347H1471.05V197.355ZM1489.23 135.412H1488.93L1489.17 135.179H1471.05V119.184H1471.02V117.095H1471.16L1471.14 117.11H1489.2V134.415H1489.23V135.412ZM1466.76 151.447L1454.82 163.392L1451.8 166.406L1454.82 169.422L1466.76 181.367V192.928H1454.39L1442.85 181.387L1439.84 178.371L1425.28 192.928H1413.53V180.752L1427.87 166.412L1413.53 152.071V139.684H1424.96L1436.82 151.543L1439.84 154.56L1442.85 151.543L1454.71 139.684H1466.76L1466.76 151.447ZM1409.23 215.347H1391.06V197.355H1409.23V215.347ZM1493.49 112.831L1466.76 112.784L1466.75 134.416H1466.76V135.176H1453.18L1452.95 135.409H1452.84L1439.84 148.409L1426.83 135.409H1426.73L1426.5 135.176H1413.53L1413.55 112.781L1386.76 112.828L1386.8 139.674H1409.27V153.825L1421.84 166.402L1409.27 178.98V192.923L1386.8 192.879L1386.76 219.608H1413.55L1413.53 197.35H1426.89L1439.84 184.397L1452.79 197.35H1466.75L1466.76 219.608H1493.49L1493.55 192.879L1471.03 192.923V179.597L1457.83 166.401L1471.03 153.207V139.672H1493.55L1493.49 112.831ZM1409.25 135.179H1391.07V119.184H1391.05V117.111H1408.54L1408.52 117.096H1409.24V134.416H1409.25L1409.25 135.179Z" fill="white"/>
<path d="M1631 197.355H1649.15V215.347H1631V197.355ZM1649.18 135.412H1648.88L1649.12 135.179H1631V119.184H1630.96V117.095H1631.1L1631.09 117.11H1649.15V134.415H1649.18V135.412ZM1626.71 151.447L1614.77 163.392L1611.75 166.406L1614.77 169.422L1626.71 181.367V192.928H1614.34L1602.8 181.387L1599.79 178.371L1585.23 192.928H1573.48V180.752L1587.82 166.412L1573.48 152.071V139.684H1584.91L1596.77 151.543L1599.79 154.56L1602.8 151.543L1614.66 139.684H1626.71L1626.71 151.447ZM1569.18 215.347H1551.01V197.355H1569.18V215.347ZM1653.44 112.831L1626.71 112.784L1626.7 134.416H1626.71V135.176H1613.13L1612.9 135.409H1612.79L1599.79 148.409L1586.78 135.409H1586.68L1586.45 135.176H1573.48L1573.5 112.781L1546.71 112.828L1546.75 139.674H1569.21V153.825L1581.79 166.402L1569.21 178.98V192.923L1546.75 192.879L1546.71 219.608H1573.5L1573.48 197.35H1586.84L1599.79 184.397L1612.74 197.35H1626.7L1626.71 219.608H1653.44L1653.5 192.879L1630.98 192.923V179.597L1617.79 166.401L1630.98 153.207V139.672H1653.5L1653.44 112.831ZM1569.2 135.179H1551.01V119.184H1551V117.111H1568.49L1568.47 117.096H1569.19V134.416H1569.2V135.179Z" fill="white"/>
<path d="M1790.95 197.355H1809.1V215.347H1790.95V197.355ZM1809.13 135.412H1808.84L1809.07 135.179H1790.95V119.184H1790.91V117.095H1791.05L1791.04 117.11H1809.1V134.415H1809.13L1809.13 135.412ZM1786.66 151.447L1774.72 163.392L1771.7 166.406L1774.72 169.422L1786.66 181.367V192.928H1774.29L1762.75 181.387L1759.74 178.371L1745.18 192.928H1733.43V180.752L1747.77 166.412L1733.43 152.071V139.684H1744.86L1756.72 151.543L1759.74 154.56L1762.75 151.543L1774.61 139.684H1786.66L1786.66 151.447ZM1729.13 215.347H1710.96V197.355H1729.13V215.347ZM1813.39 112.831L1786.66 112.784L1786.65 134.416H1786.66V135.176H1773.08L1772.85 135.409H1772.74L1759.74 148.409L1746.74 135.409H1746.63L1746.4 135.176H1733.43L1733.45 112.781L1706.66 112.828L1706.7 139.674H1729.17V153.825L1741.74 166.402L1729.17 178.98V192.923L1706.7 192.879L1706.66 219.608H1733.45L1733.43 197.35H1746.79L1759.74 184.397L1772.69 197.35H1786.65L1786.66 219.608H1813.39L1813.45 192.879L1790.93 192.923V179.597L1777.73 166.401L1790.93 153.207V139.672H1813.45L1813.39 112.831ZM1729.15 135.179H1710.96V119.184H1710.95V117.111H1728.44L1728.42 117.096H1729.14V134.416H1729.15L1729.15 135.179Z" fill="white"/>
<path d="M1920 178.686L1919.69 178.371L1905.13 192.928H1893.38V180.752L1907.72 166.412L1893.38 152.071V139.684H1904.81L1916.67 151.543L1919.69 154.559L1920 154.245V148.106L1919.69 148.42L1906.68 135.419H1906.58L1906.34 135.186H1893.38L1893.4 112.792L1866.61 112.838L1866.65 139.684H1889.11V153.835L1901.69 166.413L1889.11 178.99V192.933L1866.65 192.889L1866.61 219.619H1893.4L1893.38 197.361H1906.74L1919.69 184.408L1920 184.723L1920 178.686ZM1889.09 135.179H1870.91V119.184H1870.9V117.111H1888.38L1888.37 117.096H1889.08V134.416H1889.09V135.179ZM1889.08 215.347H1870.91V197.355H1889.08V215.347Z" fill="white"/>
<path d="M1391.07 277.524H1409.22V295.516H1391.07V277.524ZM1409.26 215.58H1408.96L1409.19 215.347H1391.07V199.352H1391.04V197.263H1391.18L1391.16 197.279H1409.22V214.585H1409.26V215.58ZM1386.79 231.615L1374.84 243.561L1371.82 246.576L1374.84 249.591L1386.79 261.537V273.096H1374.42L1362.88 261.555L1359.86 258.539L1345.3 273.096H1333.55V260.92L1347.9 246.58L1333.55 232.239V219.845H1344.98L1356.85 231.705L1359.86 234.72L1362.88 231.705L1374.74 219.845H1386.79V231.615ZM1329.26 295.517H1311.09V277.525H1329.26V295.517ZM1413.51 193L1386.78 192.954L1386.77 214.586H1386.79V215.346H1373.2L1372.97 215.579H1372.87L1359.86 228.58L1346.86 215.579H1346.75L1346.52 215.346H1333.56L1333.58 192.952L1306.79 192.998L1306.83 219.844H1329.29V233.994L1341.87 246.572L1329.29 259.148V273.092L1306.83 273.048L1306.79 299.777H1333.58L1333.56 277.519H1346.91L1359.86 264.566L1372.82 277.519H1386.78L1386.79 299.777H1413.51L1413.58 273.048L1391.06 273.092V259.766L1377.86 246.571L1391.06 233.377V219.845H1413.58L1413.51 193ZM1329.27 215.348H1311.09V199.353H1311.08V197.281H1328.56L1328.54 197.265H1329.26V214.586H1329.27L1329.27 215.348Z" fill="white"/>
<path d="M1551.02 277.524H1569.17V295.516H1551.02V277.524ZM1569.2 215.58H1568.91L1569.14 215.347H1551.02V199.352H1550.99V197.263H1551.13L1551.11 197.279H1569.17V214.585H1569.2V215.58ZM1546.73 231.615L1534.79 243.561L1531.77 246.576L1534.79 249.591L1546.73 261.537V273.096H1534.37L1522.83 261.555L1519.81 258.539L1505.25 273.096H1493.5V260.92L1507.84 246.58L1493.5 232.239V219.845H1504.93L1516.79 231.705L1519.81 234.72L1522.83 231.705L1534.69 219.845H1546.73V231.615ZM1489.21 295.517H1471.04V277.525H1489.21V295.517ZM1573.46 193L1546.73 192.954L1546.72 214.586H1546.73V215.346H1533.15L1532.92 215.579H1532.82L1519.81 228.58L1506.81 215.579H1506.7L1506.47 215.346H1493.51L1493.53 192.952L1466.74 192.998L1466.78 219.844H1489.24V233.994L1501.82 246.572L1489.24 259.148V273.092L1466.78 273.048L1466.74 299.777H1493.53L1493.51 277.519H1506.86L1519.81 264.566L1532.77 277.519H1546.73L1546.74 299.777H1573.46L1573.52 273.048L1551 273.092V259.766L1537.81 246.571L1551 233.377V219.845H1573.52L1573.46 193ZM1489.22 215.348H1471.04V199.353H1471.03V197.281H1488.51L1488.49 197.265H1489.21V214.586H1489.22L1489.22 215.348Z" fill="white"/>
<path d="M1710.97 277.524H1729.12V295.516H1710.97V277.524ZM1729.15 215.58H1728.86L1729.09 215.347H1710.97V199.352H1710.94V197.263H1711.08L1711.06 197.279H1729.12V214.585H1729.15V215.58ZM1706.68 231.615L1694.74 243.561L1691.73 246.576L1694.74 249.591L1706.68 261.537V273.096H1694.32L1682.78 261.555L1679.76 258.539L1665.21 273.096H1653.46V260.92L1667.8 246.58L1653.46 232.239V219.845H1664.88L1676.74 231.705L1679.76 234.72L1682.78 231.705L1694.64 219.845H1706.69L1706.68 231.615ZM1649.16 295.517H1630.99V277.525H1649.16V295.517ZM1733.41 193L1706.68 192.954L1706.67 214.586H1706.68V215.346H1693.1L1692.87 215.579H1692.76L1679.76 228.58L1666.76 215.579H1666.65L1666.42 215.346H1653.46L1653.48 192.952L1626.69 192.998L1626.73 219.844H1649.19V233.994L1661.77 246.572L1649.19 259.148V273.092L1626.73 273.048L1626.69 299.777H1653.48L1653.46 277.519H1666.81L1679.76 264.566L1692.72 277.519H1706.68L1706.69 299.777H1733.42L1733.48 273.048L1710.95 273.092V259.766L1697.76 246.571L1710.95 233.377V219.845H1733.48L1733.41 193ZM1649.17 215.348H1630.99V199.353H1630.98V197.281H1648.46L1648.45 197.265H1649.16V214.586H1649.17L1649.17 215.348Z" fill="white"/>
<path d="M1870.92 277.524H1889.07V295.516H1870.92V277.524ZM1889.1 215.58H1888.81L1889.04 215.347H1870.92V199.352H1870.89V197.263H1871.03L1871.01 197.279H1889.07V214.585H1889.1L1889.1 215.58ZM1866.64 231.615L1854.69 243.561L1851.68 246.576L1854.69 249.591L1866.64 261.537V273.096H1854.27L1842.73 261.555L1839.71 258.539L1825.15 273.096H1813.4V260.92L1827.74 246.58L1813.4 232.239V219.845H1824.83L1836.69 231.705L1839.71 234.72L1842.73 231.705L1854.59 219.845H1866.64L1866.64 231.615ZM1809.11 295.517H1790.94V277.525H1809.11V295.517ZM1893.36 193L1866.63 192.954L1866.62 214.586H1866.64V215.346H1853.05L1852.82 215.579H1852.71L1839.71 228.58L1826.71 215.579H1826.6L1826.37 215.346H1813.4L1813.43 192.952L1786.64 192.998L1786.68 219.844H1809.14V233.994L1821.72 246.572L1809.14 259.148V273.092L1786.68 273.048L1786.64 299.777H1813.43L1813.4 277.519H1826.76L1839.71 264.566L1852.67 277.519H1866.63L1866.64 299.777H1893.37L1893.43 273.048L1870.91 273.092V259.766L1857.71 246.571L1870.91 233.377V219.845H1893.43L1893.36 193ZM1809.12 215.348H1790.94V199.353H1790.93V197.281H1808.41L1808.4 197.265H1809.11V214.586H1809.12L1809.12 215.348Z" fill="white"/>
<path d="M1311.07 339.8L1297.88 326.605L1311.07 313.411V299.875H1333.6L1333.53 273.027L1306.81 272.982L1306.8 294.615H1306.81V295.375H1293.23L1293 295.608H1292.89L1280.2 308.294V314.433L1282.9 311.733L1294.76 299.873H1306.81V311.643L1291.85 326.603L1294.87 329.618L1306.81 341.565V353.123H1294.44L1282.9 341.583L1280.2 338.882V344.913L1292.84 357.553H1306.8L1306.81 379.811H1333.54L1333.6 353.081L1311.08 353.124L1311.07 339.8ZM1311.06 277.294H1311.2L1311.19 277.311H1329.25V294.615H1329.28V295.609H1328.98L1329.22 295.377H1311.09V279.382H1311.06L1311.06 277.294ZM1311.1 357.555H1329.25V375.547H1311.1V357.555Z" fill="white"/>
<path d="M1471.05 357.555H1489.2V375.547H1471.05V357.555ZM1489.23 295.61H1488.93L1489.17 295.378H1471.05V279.383H1471.02V277.294H1471.16L1471.14 277.31H1489.2V294.615H1489.23V295.61ZM1466.76 311.646L1454.82 323.591L1451.8 326.606L1454.82 329.621L1466.76 341.567V353.126H1454.39L1442.85 341.585L1439.84 338.57L1425.28 353.126H1413.53V340.951L1427.87 326.61L1413.53 312.27V299.882H1424.96L1436.82 311.742L1439.84 314.757L1442.85 311.742L1454.71 299.882H1466.76L1466.76 311.646ZM1409.23 375.547H1391.06V357.555H1409.23V375.547ZM1493.49 273.028L1466.76 272.983L1466.75 294.616H1466.76V295.376H1453.18L1452.95 295.608H1452.84L1439.84 308.609L1426.83 295.608H1426.73L1426.5 295.376H1413.53L1413.55 272.98L1386.76 273.025L1386.8 299.873H1409.27V314.023L1421.84 326.601L1409.27 339.178V353.12L1386.8 353.077L1386.76 379.807H1413.55L1413.53 357.549H1426.89L1439.84 344.595L1452.79 357.549H1466.75L1466.76 379.807H1493.49L1493.55 353.077L1471.03 353.12V339.794L1457.83 326.599L1471.03 313.405V299.869H1493.55L1493.49 273.028ZM1409.25 295.378H1391.07V279.383H1391.05V277.31H1408.54L1408.52 277.294H1409.24V294.615H1409.25L1409.25 295.378Z" fill="white"/>
<path d="M1631 357.555H1649.15V375.547H1631V357.555ZM1649.18 295.61H1648.88L1649.12 295.378H1631V279.383H1630.96V277.294H1631.1L1631.09 277.31H1649.15V294.615H1649.18V295.61ZM1626.71 311.646L1614.77 323.591L1611.75 326.606L1614.77 329.621L1626.71 341.567V353.126H1614.34L1602.8 341.585L1599.79 338.57L1585.23 353.126H1573.48V340.951L1587.82 326.61L1573.48 312.27V299.882H1584.91L1596.77 311.742L1599.79 314.757L1602.8 311.742L1614.66 299.882H1626.71L1626.71 311.646ZM1569.18 375.547H1551.01V357.555H1569.18V375.547ZM1653.44 273.028L1626.71 272.983L1626.7 294.616H1626.71V295.376H1613.13L1612.9 295.608H1612.79L1599.79 308.609L1586.78 295.608H1586.68L1586.45 295.376H1573.48L1573.5 272.98L1546.71 273.025L1546.75 299.873H1569.21V314.023L1581.79 326.601L1569.21 339.178V353.12L1546.75 353.077L1546.71 379.807H1573.5L1573.48 357.549H1586.84L1599.79 344.595L1612.74 357.549H1626.7L1626.71 379.807H1653.44L1653.5 353.077L1630.98 353.12V339.794L1617.79 326.599L1630.98 313.405V299.869H1653.5L1653.44 273.028ZM1569.2 295.378H1551.01V279.383H1551V277.31H1568.49L1568.47 277.294H1569.19V294.615H1569.2V295.378Z" fill="white"/>
<path d="M1790.95 357.555H1809.1V375.547H1790.95V357.555ZM1809.13 295.61H1808.84L1809.07 295.378H1790.95V279.383H1790.91V277.294H1791.05L1791.04 277.31H1809.1V294.615H1809.13L1809.13 295.61ZM1786.66 311.646L1774.72 323.591L1771.7 326.606L1774.72 329.621L1786.66 341.567V353.126H1774.29L1762.75 341.585L1759.74 338.57L1745.18 353.126H1733.43V340.951L1747.77 326.61L1733.43 312.27V299.882H1744.86L1756.72 311.742L1759.74 314.757L1762.75 311.742L1774.61 299.882H1786.66L1786.66 311.646ZM1729.13 375.547H1710.96V357.555H1729.13V375.547ZM1813.39 273.028L1786.66 272.983L1786.65 294.616H1786.66V295.376H1773.08L1772.85 295.608H1772.74L1759.74 308.609L1746.74 295.608H1746.63L1746.4 295.376H1733.43L1733.45 272.98L1706.66 273.025L1706.7 299.873H1729.17V314.023L1741.74 326.601L1729.17 339.178V353.12L1706.7 353.077L1706.66 379.807H1733.45L1733.43 357.549H1746.79L1759.74 344.595L1772.69 357.549H1786.65L1786.66 379.807H1813.39L1813.45 353.077L1790.93 353.12V339.794L1777.73 326.599L1790.93 313.405V299.869H1813.45L1813.39 273.028ZM1729.15 295.378H1710.96V279.383H1710.95V277.31H1728.44L1728.42 277.294H1729.14V294.615H1729.15L1729.15 295.378Z" fill="white"/>
<path d="M1920 338.885L1919.69 338.57L1905.13 353.126H1893.38V340.951L1907.72 326.611L1893.38 312.27V299.882H1904.81L1916.67 311.742L1919.69 314.758L1920 314.443V308.303L1919.69 308.619L1906.68 295.618H1906.58L1906.34 295.386H1893.38L1893.4 272.99L1866.61 273.035L1866.65 299.882H1889.11V314.033L1901.69 326.611L1889.11 339.188V353.13L1866.65 353.086L1866.61 379.817H1893.4L1893.38 357.559H1906.74L1919.69 344.605L1920 344.919L1920 338.885ZM1889.09 295.378H1870.91V279.383H1870.9V277.311H1888.38L1888.37 277.294H1889.08V294.615H1889.09V295.378ZM1889.08 375.547H1870.91V357.555H1889.08V375.547Z" fill="white"/>
</g>
</g>
<defs>
<clipPath id="clip0_108_2038">
<rect width="1920" height="340" fill="white"/>
</clipPath>
</defs>
</svg>
