<svg width="162" height="51" viewBox="0 0 162 51" fill="none" xmlns="http://www.w3.org/2000/svg">
<path d="M51.5083 27.4181H45.5852L44.9473 29.3941H40.6133L45.9883 14.2671H51.0881L56.6543 29.3941H52.1543L51.5083 27.4181ZM50.3611 23.9121L49.2351 20.4281C48.9801 19.6421 48.7252 18.8341 48.5122 18.0281C48.2782 18.8351 48.0453 19.6431 47.7903 20.4281L46.6902 23.9121H50.3611Z" fill="#191000"/>
<path d="M67.1651 26.5682V29.3942H57.2862V27.0142L60.7701 22.8072C61.1951 22.2762 61.6412 21.7662 62.1082 21.2352C61.3862 21.2562 60.6643 21.2562 59.9413 21.2562H57.2852V18.4302H66.9942V20.8102L63.5101 25.0172C63.0851 25.5482 62.6392 26.0582 62.1722 26.5892C62.8942 26.5682 63.6172 26.5682 64.3392 26.5682H67.1651Z" fill="#191000"/>
<path d="M68.6522 18.4311H72.5611V29.3941H68.6522V18.4311ZM68.7791 14.2671H72.4542V17.3261H68.7791V14.2671Z" fill="#191000"/>
<path d="M92.0013 22.4042V29.3942H88.0921V23.1262C88.0921 22.1062 87.7733 21.4902 86.7113 21.4902C85.8403 21.4902 85.1393 22.0003 85.1393 23.3173V29.3933H81.2303V23.1252C81.2303 22.1052 80.9112 21.4893 79.8492 21.4893C78.9782 21.4893 78.2772 21.9992 78.2772 23.3162V29.3923H74.3683V18.4313H78.1922V19.8762C78.528 19.3629 78.9843 18.9396 79.5213 18.6433C80.0584 18.3469 80.66 18.1866 81.2733 18.1763C81.959 18.1307 82.6431 18.2851 83.2428 18.6208C83.8424 18.9565 84.3316 19.4589 84.6512 20.0673C85.0515 19.5095 85.573 19.0496 86.1764 18.7221C86.7798 18.3946 87.4493 18.208 88.1351 18.1763C90.4291 18.1763 92.0013 19.5782 92.0013 22.4042Z" fill="#191000"/>
<path d="M104.62 18.4313V29.3942H100.796V27.9492C100.403 28.4854 99.8881 28.9197 99.293 29.2155C98.6979 29.5113 98.0404 29.66 97.376 29.6492C95.294 29.6492 93.594 28.3492 93.594 25.5272V18.4272H97.5029V24.6953C97.5029 25.7153 97.886 26.3312 98.99 26.3312C99.2286 26.344 99.4669 26.3045 99.6887 26.2157C99.9105 26.1269 100.11 25.9907 100.274 25.8168C100.438 25.6429 100.562 25.4354 100.637 25.2087C100.713 24.9821 100.738 24.7417 100.711 24.5043V18.4282L104.62 18.4313Z" fill="#191000"/>
<path d="M111.248 21.1932V25.5702C111.248 26.4842 111.716 26.5472 112.501 26.5472H113.308V29.3942C112.758 29.462 112.205 29.4973 111.651 29.5002C108.551 29.5002 107.338 28.4802 107.338 26.0372V21.1932H105.787V18.4312H107.338V15.1172H111.247V18.4312H113.308V21.1932H111.248Z" fill="#191000"/>
<path d="M59.2202 47.5632H53.2932L52.6562 49.5392H48.3223L53.6963 34.4092H58.7961L64.3623 49.5362H59.8623L59.2202 47.5632ZM58.0732 44.0572L56.9473 40.5732C56.6923 39.7872 56.4371 38.9792 56.2251 38.1732C55.9911 38.9802 55.7572 39.7882 55.5022 40.5732L54.4021 44.0572H58.0732Z" fill="#191000"/>
<path d="M75.154 38.5762L71.3942 49.5392H66.6352L62.8752 38.5762H67.06L67.1881 39.0432C67.8251 41.4012 68.488 43.8871 69.1 46.2881C69.737 43.8881 70.4001 41.4012 71.0331 39.0432L71.1601 38.5762H75.154Z" fill="#191000"/>
<path d="M76.0034 38.5761H79.9124V49.5391H76.0034V38.5761ZM76.1304 34.4121H79.8064V37.4711H76.1304V34.4121Z" fill="#191000"/>
<path d="M88.9843 49.5393C88.8251 49.1837 88.7317 48.8022 88.7084 48.4133C88.2712 48.8937 87.7299 49.2678 87.1261 49.5071C86.5223 49.7465 85.8718 49.8447 85.2243 49.7943C82.9513 49.7943 81.1874 48.6044 81.1874 46.3734C81.1874 44.4184 82.3564 43.2293 85.5644 42.9523L87.3273 42.8033C88.2193 42.7183 88.6442 42.4843 88.6442 41.8893C88.6442 41.4003 88.3893 41.0183 87.2633 41.0183C86.1803 41.0183 85.7333 41.2523 85.6273 42.1863H81.7643C81.9553 39.6373 83.6342 38.3193 87.3092 38.3193C90.8782 38.3193 92.4723 39.5944 92.4723 41.7614V47.5613C92.4249 48.2494 92.58 48.9364 92.9184 49.5374L88.9843 49.5393ZM88.6442 45.2263V44.5894C88.5198 44.7242 88.3688 44.8316 88.2006 44.9048C88.0324 44.978 87.8508 45.0153 87.6674 45.0143L86.4142 45.1414C85.5852 45.2264 85.1613 45.5664 85.1613 46.2244C85.1613 46.8824 85.6924 47.2863 86.5614 47.2863C86.8418 47.3237 87.1268 47.2963 87.3949 47.2064C87.6631 47.1164 87.9072 46.9663 88.1083 46.7674C88.3094 46.5685 88.4622 46.3262 88.5551 46.0591C88.648 45.792 88.6784 45.5071 88.6442 45.2263Z" fill="#191000"/>
<path d="M112.013 38.1942H107.552V49.5392H103.303V38.1942H98.8421V34.4092H112.014L112.013 38.1942Z" fill="#191000"/>
<path d="M120.108 38.4702V41.9762H119.088C117.367 41.9762 116.454 42.8262 116.454 44.8652V49.5392H112.545V38.5762H116.364V40.7432C116.472 40.0534 116.835 39.4295 117.383 38.9963C117.93 38.563 118.621 38.3523 119.317 38.4062C119.582 38.4035 119.847 38.4249 120.108 38.4702Z" fill="#191000"/>
<path d="M128.224 49.5393C128.065 49.1837 127.972 48.8022 127.948 48.4133C127.511 48.8937 126.97 49.2678 126.366 49.5071C125.762 49.7465 125.112 49.8447 124.464 49.7943C122.191 49.7943 120.427 48.6044 120.427 46.3734C120.427 44.4184 121.595 43.2293 124.803 42.9523L126.566 42.8033C127.459 42.7183 127.883 42.4843 127.883 41.8893C127.883 41.4003 127.628 41.0183 126.502 41.0183C125.419 41.0183 124.972 41.2523 124.866 42.1863H120.998C121.189 39.6373 122.868 38.3193 126.543 38.3193C130.112 38.3193 131.706 39.5944 131.706 41.7614V47.5613C131.659 48.2494 131.814 48.9364 132.152 49.5374L128.224 49.5393ZM127.884 45.2263V44.5894C127.76 44.7243 127.608 44.8317 127.44 44.9049C127.271 44.9781 127.09 45.0154 126.906 45.0143L125.653 45.1414C124.825 45.2264 124.4 45.5664 124.4 46.2244C124.4 46.8824 124.931 47.2863 125.8 47.2863C126.081 47.3238 126.366 47.2966 126.634 47.2067C126.902 47.1168 127.147 46.9667 127.348 46.7678C127.549 46.5689 127.702 46.3265 127.795 46.0593C127.888 45.7921 127.918 45.5072 127.884 45.2263Z" fill="#191000"/>
<path d="M144.221 38.5762L140.46 49.5392H135.701L131.941 38.5762H136.127L136.254 39.0432C136.891 41.4012 137.554 43.8871 138.166 46.2881C138.803 43.8881 139.466 41.4012 140.099 39.0432L140.226 38.5762H144.221Z" fill="#191000"/>
<path d="M156.076 45.1843H148.045C148.111 45.711 148.372 46.1939 148.778 46.5364C149.183 46.8789 149.703 47.056 150.233 47.0323C150.612 47.0665 150.994 46.9953 151.335 46.8266C151.676 46.6579 151.964 46.3983 152.167 46.0763H155.821C155.205 48.4763 152.889 49.7943 150.234 49.7943C146.686 49.7943 144.328 47.5213 144.328 44.0583C144.328 40.5953 146.643 38.3223 150.192 38.3223C153.676 38.3223 156.077 40.5953 156.077 44.4833L156.076 45.1843ZM148.045 42.8683H152.316C152.248 42.3519 151.986 41.8806 151.584 41.5494C151.182 41.2182 150.669 41.0517 150.149 41.0833C149.636 41.0504 149.129 41.2181 148.737 41.5511C148.345 41.884 148.097 42.3563 148.046 42.8683H148.045Z" fill="#191000"/>
<path d="M157.562 34.4092H161.471V49.5392H157.562V34.4092Z" fill="#191000"/>
<path d="M31.9861 24.698L16.6641 19.635L6.36401 23.035L4.82007 5.918L0 2.535V0L4.39307 1.177L16.6641 4.466L25.126 6.733L28.801 16.356L31.9861 24.698Z" fill="#080809"/>
<path d="M41.6128 50.1649H8.78589L7.71191 38.2529L16.6638 35.2949L38.7168 42.5829L41.6128 50.1649Z" fill="#080809"/>
<path d="M32.4373 25.9938L16.6653 20.7819L6.45435 24.1558L6.36426 23.1558L16.6643 19.7559L31.9863 24.8188L32.4373 25.9938Z" fill="white"/>
<path d="M38.717 42.5348L16.6641 35.2468L7.71216 38.2048L7.62207 37.2048L16.6641 34.2168L38.2642 41.3548L38.717 42.5348Z" fill="white"/>
<path opacity="0.25" d="M41.614 50.1649H16.665V4.46484L25.127 6.74484L28.802 16.4229L31.9871 24.8098L32.437 25.9958L38.2671 41.3479L38.717 42.5349L41.614 50.1649Z" fill="white"/>
</svg>
