<svg width="162" height="51" viewBox="0 0 162 51" fill="none" xmlns="http://www.w3.org/2000/svg">
<path d="M51.5083 27.418H45.5852L44.9473 29.394H40.6133L45.9883 14.267H51.0881L56.6543 29.394H52.1543L51.5083 27.418ZM50.3611 23.912L49.2351 20.428C48.9801 19.642 48.7252 18.834 48.5122 18.028C48.2782 18.835 48.0453 19.643 47.7903 20.428L46.6902 23.912H50.3611Z" fill="white"/>
<path d="M67.1655 26.568V29.394H57.2866V27.0139L60.7705 22.807C61.1955 22.276 61.6416 21.766 62.1086 21.235C61.3866 21.256 60.6647 21.256 59.9417 21.256H57.2856V18.43H66.9946V20.81L63.5105 25.017C63.0855 25.548 62.6396 26.058 62.1726 26.589C62.8946 26.568 63.6176 26.568 64.3396 26.568H67.1655Z" fill="white"/>
<path d="M68.6523 18.431H72.5613V29.394H68.6523V18.431ZM68.7793 14.267H72.4543V17.326H68.7793V14.267Z" fill="white"/>
<path d="M92.0017 22.404V29.394H88.0925V23.1259C88.0925 22.1059 87.7737 21.49 86.7117 21.49C85.8407 21.49 85.1396 22 85.1396 23.317V29.393H81.2307V23.125C81.2307 22.105 80.9116 21.489 79.8496 21.489C78.9786 21.489 78.2776 21.9989 78.2776 23.3159V29.392H74.3687V18.431H78.1926V19.8759C78.5284 19.3626 78.9847 18.9393 79.5217 18.643C80.0588 18.3466 80.6604 18.1863 81.2737 18.176C81.9594 18.1304 82.6435 18.2848 83.2432 18.6205C83.8428 18.9562 84.332 19.4587 84.6516 20.067C85.0519 19.5092 85.5734 19.0493 86.1768 18.7218C86.7801 18.3943 87.4497 18.2077 88.1355 18.176C90.4295 18.176 92.0017 19.578 92.0017 22.404Z" fill="white"/>
<path d="M104.62 18.431V29.394H100.796V27.9489C100.404 28.4852 99.8883 28.9194 99.2932 29.2152C98.6981 29.511 98.0407 29.6597 97.3762 29.649C95.2942 29.649 93.5942 28.3489 93.5942 25.5269V18.427H97.5032V24.695C97.5032 25.715 97.8862 26.331 98.9902 26.331C99.2288 26.3437 99.4672 26.3043 99.689 26.2154C99.9107 26.1266 100.111 25.9905 100.274 25.8166C100.438 25.6427 100.562 25.4351 100.638 25.2085C100.713 24.9818 100.738 24.7414 100.711 24.504V18.4279L104.62 18.431Z" fill="white"/>
<path d="M111.249 21.193V25.5699C111.249 26.4839 111.716 26.5469 112.501 26.5469H113.309V29.394C112.759 29.4617 112.205 29.4971 111.651 29.4999C108.551 29.4999 107.338 28.48 107.338 26.037V21.193H105.788V18.431H107.338V15.1169H111.248V18.431H113.309V21.193H111.249Z" fill="white"/>
<path d="M59.2202 47.5629H53.2932L52.6562 49.5389H48.3223L53.6963 34.4089H58.7961L64.3623 49.5359H59.8623L59.2202 47.5629ZM58.0732 44.0569L56.9473 40.5729C56.6923 39.7869 56.4371 38.9789 56.2251 38.1729C55.9911 38.9799 55.7572 39.7879 55.5022 40.5729L54.4021 44.0569H58.0732Z" fill="white"/>
<path d="M75.1542 38.576L71.3944 49.539H66.6354L62.8754 38.576H67.0602L67.1884 39.0429C67.8254 41.4009 68.4883 43.8869 69.1003 46.2879C69.7373 43.8879 70.4004 41.4009 71.0334 39.0429L71.1603 38.576H75.1542Z" fill="white"/>
<path d="M76.0033 38.5759H79.9122V49.5389H76.0033V38.5759ZM76.1302 34.4119H79.8063V37.4709H76.1302V34.4119Z" fill="white"/>
<path d="M88.9843 49.5389C88.8251 49.1833 88.7317 48.8018 88.7084 48.4129C88.2712 48.8933 87.7299 49.2674 87.1261 49.5067C86.5223 49.7461 85.8718 49.8443 85.2243 49.7939C82.9513 49.7939 81.1874 48.604 81.1874 46.373C81.1874 44.418 82.3564 43.2289 85.5644 42.9519L87.3273 42.8029C88.2193 42.7179 88.6442 42.4839 88.6442 41.8889C88.6442 41.3999 88.3893 41.0179 87.2633 41.0179C86.1803 41.0179 85.7333 41.2519 85.6273 42.1859H81.7643C81.9553 39.6369 83.6342 38.3189 87.3092 38.3189C90.8782 38.3189 92.4723 39.594 92.4723 41.761V47.5609C92.4249 48.249 92.58 48.936 92.9184 49.537L88.9843 49.5389ZM88.6442 45.2259V44.589C88.5198 44.7238 88.3688 44.8312 88.2006 44.9044C88.0324 44.9776 87.8508 45.0149 87.6674 45.0139L86.4142 45.141C85.5852 45.226 85.1613 45.566 85.1613 46.224C85.1613 46.882 85.6924 47.2859 86.5614 47.2859C86.8418 47.3233 87.1268 47.2959 87.3949 47.206C87.6631 47.116 87.9072 46.9659 88.1083 46.767C88.3094 46.5681 88.4622 46.3258 88.5551 46.0587C88.648 45.7916 88.6784 45.5067 88.6442 45.2259Z" fill="white"/>
<path d="M112.013 38.1939H107.552V49.5389H103.303V38.1939H98.8421V34.4089H112.014L112.013 38.1939Z" fill="white"/>
<path d="M120.108 38.4699V41.9759H119.088C117.367 41.9759 116.454 42.8259 116.454 44.8649V49.5389H112.545V38.5759H116.364V40.7429C116.472 40.0531 116.835 39.4292 117.383 38.996C117.93 38.5627 118.621 38.352 119.317 38.4059C119.582 38.4032 119.847 38.4246 120.108 38.4699Z" fill="white"/>
<path d="M128.224 49.5389C128.065 49.1833 127.972 48.8018 127.948 48.4129C127.511 48.8933 126.97 49.2674 126.366 49.5067C125.762 49.7461 125.112 49.8443 124.464 49.7939C122.191 49.7939 120.427 48.604 120.427 46.373C120.427 44.418 121.595 43.2289 124.803 42.9519L126.566 42.8029C127.459 42.7179 127.883 42.4839 127.883 41.8889C127.883 41.3999 127.628 41.0179 126.502 41.0179C125.419 41.0179 124.972 41.2519 124.866 42.1859H120.998C121.189 39.6369 122.868 38.3189 126.543 38.3189C130.112 38.3189 131.706 39.594 131.706 41.761V47.5609C131.659 48.249 131.814 48.936 132.152 49.537L128.224 49.5389ZM127.884 45.2259V44.589C127.76 44.7239 127.608 44.8313 127.44 44.9045C127.271 44.9777 127.09 45.015 126.906 45.0139L125.653 45.141C124.825 45.226 124.4 45.566 124.4 46.224C124.4 46.882 124.931 47.2859 125.8 47.2859C126.081 47.3234 126.366 47.2962 126.634 47.2063C126.902 47.1164 127.147 46.9663 127.348 46.7674C127.549 46.5685 127.702 46.3261 127.795 46.0589C127.888 45.7917 127.918 45.5068 127.884 45.2259Z" fill="white"/>
<path d="M144.221 38.576L140.46 49.539H135.701L131.941 38.576H136.127L136.254 39.0429C136.891 41.4009 137.554 43.8869 138.166 46.2879C138.803 43.8879 139.466 41.4009 140.099 39.0429L140.226 38.576H144.221Z" fill="white"/>
<path d="M156.076 45.1839H148.045C148.111 45.7107 148.372 46.1935 148.778 46.536C149.183 46.8786 149.703 47.0556 150.233 47.032C150.612 47.0661 150.994 46.995 151.335 46.8263C151.676 46.6576 151.964 46.3979 152.167 46.076H155.821C155.205 48.476 152.889 49.7939 150.234 49.7939C146.686 49.7939 144.328 47.521 144.328 44.058C144.328 40.595 146.643 38.3219 150.192 38.3219C153.676 38.3219 156.077 40.5949 156.077 44.4829L156.076 45.1839ZM148.045 42.868H152.316C152.248 42.3516 151.986 41.8803 151.584 41.5491C151.182 41.2179 150.669 41.0513 150.149 41.0829C149.636 41.0501 149.129 41.2178 148.737 41.5508C148.345 41.8837 148.097 42.356 148.046 42.868H148.045Z" fill="white"/>
<path d="M157.562 34.4089H161.471V49.5389H157.562V34.4089Z" fill="white"/>
<path d="M31.9861 24.698L16.6641 19.635L6.36401 23.035L4.82007 5.918L0 2.535V0L4.39307 1.177L16.6641 4.466L25.126 6.733L28.801 16.356L31.9861 24.698Z" fill="white"/>
<path d="M41.6128 50.1649H8.78589L7.71191 38.2529L16.6638 35.2949L38.7168 42.5829L41.6128 50.1649Z" fill="white"/>
<path d="M38.2671 41.325L16.667 34.187L7.62402 37.175L6.45605 24.2239L16.667 20.85L32.4392 26.062L38.2671 41.325Z" fill="white"/>
<path opacity="0.25" d="M41.614 50.165H16.665V4.46497L25.127 6.74496L28.802 16.423L31.9871 24.81L32.437 25.996L38.2671 41.348L38.717 42.535L41.614 50.165Z" fill="white"/>
<path d="M41.613 50.165H8.78613L7.71216 38.191L7.62207 37.185L6.4541 24.165L6.36401 23.159L4.82007 5.95203L0 2.55203V0.00402832L4.39307 1.18802L16.6641 4.49402L25.126 6.77301L28.801 16.446L31.9861 24.828L32.436 26.013L38.2661 41.358L38.7161 42.544L41.613 50.165Z" fill="white"/>
<path d="M32.4373 25.994L16.6653 20.782L6.45435 24.1559L6.36426 23.1559L16.6643 19.756L31.9863 24.819L32.4373 25.994Z" fill="black"/>
<path d="M38.717 42.535L16.6641 35.2471L7.71216 38.205L7.62207 37.205L16.6641 34.217L38.2642 41.355L38.717 42.535Z" fill="black"/>
</svg>
