<svg width="162" height="51" viewBox="0 0 162 51" fill="none" xmlns="http://www.w3.org/2000/svg">
<path d="M51.5081 27.418H45.585L44.947 29.394H40.613L45.988 14.267H51.0879L56.6541 29.394H52.1541L51.5081 27.418ZM50.3608 23.912L49.2349 20.428C48.9799 19.642 48.725 18.834 48.512 18.028C48.278 18.835 48.045 19.643 47.79 20.428L46.6899 23.912H50.3608Z" fill="#191000"/>
<path d="M67.1653 26.568V29.394H57.2864V27.014L60.7703 22.807C61.1953 22.276 61.6414 21.766 62.1084 21.235C61.3864 21.256 60.6644 21.256 59.9414 21.256H57.2854V18.43H66.9944V20.81L63.5103 25.017C63.0853 25.548 62.6394 26.058 62.1724 26.589C62.8944 26.568 63.6174 26.568 64.3394 26.568H67.1653Z" fill="#191000"/>
<path d="M68.6521 18.431H72.561V29.394H68.6521V18.431ZM68.7791 14.267H72.4541V17.326H68.7791V14.267Z" fill="#191000"/>
<path d="M92.0015 22.404V29.394H88.0923V23.126C88.0923 22.106 87.7734 21.49 86.7114 21.49C85.8404 21.49 85.1394 22 85.1394 23.317V29.393H81.2305V23.125C81.2305 22.105 80.9114 21.489 79.8494 21.489C78.9784 21.489 78.2773 21.999 78.2773 23.316V29.392H74.3684V18.431H78.1924V19.876C78.5281 19.3626 78.9844 18.9393 79.5215 18.643C80.0586 18.3467 80.6601 18.1863 81.2734 18.176C81.9591 18.1305 82.6433 18.2849 83.2429 18.6205C83.8425 18.9562 84.3317 19.4587 84.6514 20.067C85.0517 19.5092 85.5731 19.0494 86.1765 18.7219C86.7799 18.3944 87.4494 18.2078 88.1353 18.176C90.4293 18.176 92.0015 19.578 92.0015 22.404Z" fill="#191000"/>
<path d="M104.62 18.431V29.394H100.796V27.949C100.403 28.4852 99.8881 28.9194 99.293 29.2152C98.6979 29.511 98.0404 29.6598 97.376 29.649C95.294 29.649 93.594 28.349 93.594 25.527V18.427H97.5029V24.695C97.5029 25.715 97.886 26.331 98.99 26.331C99.2286 26.3437 99.4669 26.3043 99.6887 26.2155C99.9105 26.1266 100.11 25.9905 100.274 25.8166C100.438 25.6427 100.562 25.4352 100.637 25.2085C100.713 24.9818 100.738 24.7414 100.711 24.504V18.428L104.62 18.431Z" fill="#191000"/>
<path d="M111.248 21.193V25.57C111.248 26.484 111.716 26.547 112.501 26.547H113.308V29.394C112.759 29.4618 112.205 29.4971 111.651 29.5C108.551 29.5 107.338 28.48 107.338 26.037V21.193H105.787V18.431H107.338V15.117H111.247V18.431H113.308V21.193H111.248Z" fill="#191000"/>
<path d="M59.22 47.563H53.293L52.656 49.539H48.322L53.696 34.409H58.7959L64.3621 49.536H59.8621L59.22 47.563ZM58.073 44.057L56.947 40.573C56.692 39.787 56.4369 38.979 56.2249 38.173C55.9909 38.98 55.757 39.788 55.502 40.573L54.4019 44.057H58.073Z" fill="#191000"/>
<path d="M75.1541 38.576L71.3943 49.539H66.6353L62.8752 38.576H67.0601L67.1882 39.043C67.8252 41.401 68.4881 43.887 69.1001 46.288C69.7371 43.888 70.4002 41.401 71.0332 39.043L71.1602 38.576H75.1541Z" fill="#191000"/>
<path d="M76.0032 38.576H79.9121V49.539H76.0032V38.576ZM76.1301 34.412H79.8062V37.471H76.1301V34.412Z" fill="#191000"/>
<path d="M88.9841 49.539C88.825 49.1834 88.7316 48.8019 88.7083 48.413C88.2711 48.8933 87.7298 49.2675 87.126 49.5068C86.5222 49.7461 85.8717 49.8443 85.2241 49.794C82.9511 49.794 81.1873 48.604 81.1873 46.373C81.1873 44.418 82.3562 43.229 85.5642 42.952L87.3271 42.803C88.2191 42.718 88.644 42.484 88.644 41.889C88.644 41.4 88.3892 41.018 87.2632 41.018C86.1802 41.018 85.7332 41.252 85.6272 42.186H81.7642C81.9552 39.637 83.6341 38.319 87.3091 38.319C90.8781 38.319 92.4722 39.594 92.4722 41.761V47.561C92.4247 48.2491 92.5798 48.936 92.9182 49.537L88.9841 49.539ZM88.644 45.226V44.589C88.5197 44.7239 88.3687 44.8313 88.2004 44.9044C88.0322 44.9776 87.8507 45.0149 87.6672 45.014L86.4141 45.141C85.5851 45.226 85.1611 45.566 85.1611 46.224C85.1611 46.882 85.6923 47.286 86.5613 47.286C86.8416 47.3233 87.1266 47.296 87.3948 47.206C87.6629 47.1161 87.9071 46.9659 88.1082 46.7671C88.3093 46.5682 88.462 46.3259 88.5549 46.0587C88.6479 45.7916 88.6783 45.5067 88.644 45.226Z" fill="#191000"/>
<path d="M112.013 38.194H107.552V49.539H103.303V38.194H98.8418V34.409H112.014L112.013 38.194Z" fill="#191000"/>
<path d="M120.108 38.47V41.976H119.088C117.367 41.976 116.454 42.826 116.454 44.865V49.539H112.545V38.576H116.364V40.743C116.471 40.0531 116.835 39.4293 117.383 38.996C117.93 38.5628 118.621 38.3521 119.317 38.406C119.582 38.4032 119.847 38.4246 120.108 38.47Z" fill="#191000"/>
<path d="M128.224 49.539C128.065 49.1833 127.971 48.8019 127.948 48.413C127.511 48.8933 126.97 49.2675 126.366 49.5068C125.762 49.7461 125.111 49.8443 124.464 49.794C122.191 49.794 120.427 48.604 120.427 46.373C120.427 44.418 121.595 43.229 124.803 42.952L126.566 42.803C127.459 42.718 127.883 42.484 127.883 41.889C127.883 41.4 127.628 41.018 126.502 41.018C125.419 41.018 124.972 41.252 124.866 42.186H120.998C121.189 39.637 122.868 38.319 126.543 38.319C130.112 38.319 131.706 39.594 131.706 41.761V47.561C131.659 48.2491 131.813 48.936 132.152 49.537L128.224 49.539ZM127.884 45.226V44.589C127.759 44.7239 127.608 44.8314 127.439 44.9046C127.271 44.9777 127.089 45.015 126.906 45.014L125.653 45.141C124.825 45.226 124.4 45.566 124.4 46.224C124.4 46.882 124.931 47.286 125.8 47.286C126.08 47.3235 126.366 47.2963 126.634 47.2064C126.902 47.1165 127.146 46.9664 127.348 46.7675C127.549 46.5686 127.701 46.3262 127.794 46.059C127.887 45.7918 127.918 45.5068 127.884 45.226Z" fill="#191000"/>
<path d="M144.221 38.576L140.46 49.539H135.701L131.941 38.576H136.127L136.254 39.043C136.891 41.401 137.554 43.887 138.166 46.288C138.803 43.888 139.466 41.401 140.099 39.043L140.226 38.576H144.221Z" fill="#191000"/>
<path d="M156.076 45.184H148.045C148.111 45.7108 148.372 46.1936 148.778 46.5361C149.183 46.8786 149.703 47.0557 150.233 47.032C150.612 47.0662 150.993 46.995 151.335 46.8263C151.676 46.6576 151.964 46.398 152.167 46.076H155.821C155.205 48.476 152.889 49.794 150.234 49.794C146.686 49.794 144.328 47.521 144.328 44.058C144.328 40.595 146.643 38.322 150.192 38.322C153.676 38.322 156.077 40.595 156.077 44.483L156.076 45.184ZM148.045 42.868H152.316C152.248 42.3516 151.986 41.8804 151.584 41.5492C151.182 41.218 150.669 41.0514 150.149 41.083C149.636 41.0501 149.129 41.2179 148.737 41.5508C148.345 41.8838 148.097 42.356 148.046 42.868H148.045Z" fill="#191000"/>
<path d="M157.562 34.409H161.471V49.539H157.562V34.409Z" fill="#191000"/>
<path d="M31.9861 24.698L16.6641 19.635L6.36401 23.035L4.82007 5.918L0 2.535V0L4.39307 1.177L16.6641 4.466L25.126 6.733L28.801 16.356L31.9861 24.698Z" fill="#080809"/>
<path d="M41.613 50.165H8.78613L7.71216 38.253L16.6641 35.295L38.717 42.583L41.613 50.165Z" fill="#080809"/>
<path d="M38.2671 41.325L16.667 34.187L7.62402 37.175L6.45605 24.224L16.667 20.85L32.4392 26.062L38.2671 41.325Z" fill="#EBB027"/>
<path d="M32.437 25.994L16.665 20.782L6.4541 24.156L6.36401 23.156L16.6641 19.756L31.9861 24.819L32.437 25.994Z" fill="#F1F4FF"/>
<path d="M38.717 42.535L16.6641 35.247L7.71216 38.205L7.62207 37.205L16.6641 34.217L38.2642 41.355L38.717 42.535Z" fill="#F1F4FF"/>
<path opacity="0.25" d="M41.614 50.165H16.665V4.46497L25.127 6.74496L28.802 16.423L31.9871 24.81L32.437 25.996L38.2671 41.348L38.717 42.535L41.614 50.165Z" fill="#F1F4FF"/>
</svg>
